<?xml version="1.0" standalone="no"?>
<!DOCTYPE svg PUBLIC "-//W3C//DTD SVG 1.1//EN" "http://www.w3.org/Graphics/SVG/1.1/DTD/svg11.dtd" >
<svg xmlns="http://www.w3.org/2000/svg">
<metadata></metadata>
<defs>
<font id="kokilaregular" horiz-adv-x="793" >
<font-face units-per-em="2048" ascent="1638" descent="-410" />
<missing-glyph horiz-adv-x="396" />
<glyph horiz-adv-x="0" />
<glyph horiz-adv-x="682" />
<glyph unicode=" "  horiz-adv-x="396" />
<glyph unicode="&#x09;" horiz-adv-x="396" />
<glyph unicode="&#xa0;" horiz-adv-x="396" />
<glyph unicode="!" horiz-adv-x="528" d="M176 966q0 49 26 78.5t63 29.5q36 0 61 -29.5t25 -87.5q0 -19 -3 -52l-69 -627h-30l-68 627q-5 41 -5 61zM177 64q0 35 25.5 60t60.5 25q36 0 61 -25t25 -60t-25 -60.5t-61 -25.5q-35 0 -60.5 25.5t-25.5 60.5z" />
<glyph unicode="&#x22;" horiz-adv-x="647" d="M103 979q0 50 20.5 72.5t55.5 22.5q34 0 56.5 -23t22.5 -61q0 -30 -20 -140l-42 -228h-33l-43 229q-17 94 -17 128zM385 980q0 49 22 71.5t57 22.5q34 0 56 -22.5t22 -60.5q0 -66 -15 -143l-44 -226h-37l-42 226l-17 93q-2 20 -2 39z" />
<glyph unicode="#" d="M29 330v64h144l54 265h-198v62h212l71 353h64l-70 -353h261l75 353h64l-74 -353h132v-62h-143l-54 -265h197v-64h-211l-72 -352h-62l70 352h-262l-74 -352h-64l72 352h-132zM238 394h263l56 265h-264z" />
<glyph unicode="$" d="M84 39v220h34q8 -107 66 -163.5t174 -66.5v452q-175 107 -233 190q-41 59 -41 143q0 95 71 166.5t203 86.5v71h49v-71q64 -4 107 -15q22 -6 149 -54v-231h-31q-10 123 -63.5 180t-161.5 68v-393q195 -137 250.5 -201.5t55.5 -160.5q0 -107 -81 -188t-225 -94v-99h-49v99 q-73 3 -136 17t-138 44zM205 865q0 -57 34 -106t119 -105v360q-78 -9 -115.5 -49t-37.5 -100zM407 29q58 10 89 28q43 27 68.5 71t25.5 93q0 51 -30.5 97t-152.5 129v-418z" />
<glyph unicode="%" horiz-adv-x="1320" d="M56 788q0 81 31 149.5t84.5 102.5t110.5 34q104 0 162 -87t58 -199q0 -135 -65 -208.5t-157 -73.5q-61 0 -112 34t-81.5 100.5t-30.5 147.5zM179 789q0 -108 17 -164q13 -43 41 -66q16 -14 40 -14q37 0 64 40q38 60 38 199q0 147 -38 207q-24 39 -62 39 q-39 0 -69.5 -46.5t-30.5 -194.5zM244 -43l765 1117h68l-764 -1117h-69zM820 238q0 82 31 149t84 100.5t107 33.5q55 0 109.5 -35t84 -101.5t29.5 -146.5q0 -137 -65.5 -209t-155.5 -72q-56 0 -109 34.5t-84 99.5t-31 147zM944 233q0 -139 35 -194q26 -39 64 -39q35 0 63 43 q37 56 37 194q0 145 -37 203q-25 40 -63 40t-65 -42q-34 -54 -34 -205z" />
<glyph unicode="&#x26;" horiz-adv-x="1233" d="M58 207q0 93 67.5 186.5t252.5 193.5q-36 80 -49 131.5t-13 98.5q0 133 97 202q76 55 173 55q92 0 150 -55t58 -134q0 -82 -56 -144t-199 -136q99 -175 206 -320q136 162 136 274q0 35 -23 63q-17 21 -49 25v29h325v-29q-67 -5 -99.5 -29.5t-100.5 -147.5t-153 -230 q69 -81 123 -113t109 -32q54 0 91 29t52 86l29 -21q-29 -109 -92.5 -161t-147.5 -52q-63 0 -128.5 34.5t-143.5 116.5q-96 -85 -173 -118t-164 -33q-128 0 -203 68t-75 163zM218 278q0 -83 53.5 -145.5t144.5 -62.5q48 0 93.5 19t123.5 83q-102 139 -141.5 203.5 t-86.5 159.5q-93 -54 -140 -118t-47 -139zM448 878q0 -37 13 -84t52 -138q96 45 143.5 103t47.5 130q0 55 -34.5 91.5t-85.5 36.5q-67 0 -101.5 -47t-34.5 -92z" />
<glyph unicode="'" horiz-adv-x="286" d="M63 979q0 50 20 72.5t55 22.5t57.5 -23t22.5 -60q0 -29 -20 -141l-42 -228h-34l-42 229q-17 95 -17 128z" />
<glyph unicode="(" horiz-adv-x="528" d="M65 380q0 240 118.5 437.5t308.5 283.5v-33q-95 -53 -156 -144t-91.5 -231t-30.5 -293q0 -165 26 -301q20 -107 48.5 -171.5t77 -124t126.5 -113.5v-29q-117 59 -195 138q-111 112 -171.5 264.5t-60.5 316.5z" />
<glyph unicode=")" horiz-adv-x="528" d="M36 -310q95 53 156.5 144t91 231.5t29.5 292.5q0 165 -25 301q-19 107 -48 171.5t-77 124t-127 113.5v33q117 -58 195 -137q111 -113 171.5 -265.5t60.5 -316.5q0 -240 -118 -438t-309 -283v29z" />
<glyph unicode="*" d="M112 649q0 20 16 41t48 35q21 10 95 25q48 10 94 29q-42 21 -100 33q-95 20 -118 36q-35 26 -35 62q0 21 17.5 38.5t40.5 17.5q26 0 54.5 -16.5t71 -65.5t86.5 -76q-3 53 -21 106q-27 76 -27 105q0 40 19 61t47 21q24 0 42 -21t18 -60q0 -35 -20.5 -97t-25.5 -115 q43 27 77 66q52 61 77.5 75.5t52.5 14.5q25 0 42.5 -17t17.5 -41q0 -29 -25.5 -51.5t-127.5 -44.5q-60 -14 -99 -31q40 -20 98 -31q94 -17 123 -42.5t29 -56.5q0 -23 -17.5 -40t-40.5 -17t-51.5 16.5t-76.5 72.5q-32 38 -79 71q2 -44 18 -96q28 -91 28 -124 q0 -31 -18.5 -52.5t-39.5 -21.5q-29 0 -52 23q-16 16 -16 52q0 37 17.5 89t22 72t8.5 58q-45 -30 -79 -67q-57 -63 -86 -81q-20 -12 -41 -12q-27 0 -45.5 18t-18.5 39z" />
<glyph unicode="+" horiz-adv-x="894" d="M29 495v64h385v385h62v-385h387v-64h-387v-386h-62v386h-385z" />
<glyph unicode="," horiz-adv-x="396" d="M85 63q0 38 29 65t71 27q51 0 91 -44.5t40 -118.5q0 -79 -55.5 -147.5t-175.5 -108.5v34q80 26 123.5 81.5t43.5 117.5q0 15 -7 25q-5 7 -10 7q-9 0 -38 -16q-14 -7 -29 -7q-38 0 -60.5 22.5t-22.5 62.5z" />
<glyph unicode="-" horiz-adv-x="528" d="M64 297v117h400v-117h-400z" />
<glyph unicode="." horiz-adv-x="396" d="M112 64q0 37 25.5 61.5t60.5 24.5q37 0 61.5 -25t24.5 -61q0 -35 -25 -60.5t-61 -25.5q-35 0 -60.5 25.5t-25.5 60.5z" />
<glyph unicode="/" horiz-adv-x="440" d="M2 -22l380 1123h62l-380 -1123h-62z" />
<glyph unicode="0" d="M57 519q0 179 54.5 308.5t143.5 193.5q70 50 144 50q121 0 217 -123q120 -152 120 -413q0 -183 -52.5 -310.5t-134.5 -185.5t-157 -58q-151 0 -250 178q-85 149 -85 360zM209 499q0 -216 53 -353q45 -116 132 -116q42 0 87 37.5t68 126.5q35 133 35 375q0 179 -37 299 q-28 89 -72 127q-31 25 -76 25q-53 0 -94 -47q-56 -64 -76 -202t-20 -272z" />
<glyph unicode="1" d="M186 947l255 124h26v-886q0 -88 7 -110t30.5 -33.5t94.5 -12.5v-29h-395v29q75 1 96.5 12.5t30 30.5t8.5 113v567q0 114 -8 147q-5 24 -19.5 36t-34.5 12q-29 0 -80 -24z" />
<glyph unicode="2" d="M34 0v29q273 249 384.5 407t111.5 288q0 100 -61 164.5t-146 64.5q-78 0 -139.5 -45.5t-90.5 -132.5h-29q20 143 100 219.5t200 76.5q127 0 213 -82t86 -193q0 -80 -38 -160q-57 -125 -185 -265q-193 -211 -241 -254h274q84 0 117.5 6t60.5 25t47 54h29l-74 -202h-619z " />
<glyph unicode="3" d="M64 64q0 23 18.5 40t43.5 17q20 0 40 -6q13 -4 59.5 -28.5t63.5 -29.5q29 -8 62 -8q79 0 137 61t58 145q0 61 -27 119q-20 43 -44 66q-33 31 -91 56t-119 25h-24v23q61 8 122.5 44.5t89.5 87.5t28 112q0 80 -50 129t-124 49q-120 0 -201 -129l-26 13q45 106 113.5 163.5 t171.5 57.5q126 0 193 -82q51 -61 51 -131q0 -114 -144 -236q97 -38 146.5 -108.5t49.5 -165.5q0 -137 -87 -237q-113 -130 -327 -130q-106 0 -144.5 26.5t-38.5 56.5z" />
<glyph unicode="4" d="M25 277v99l487 695h85v-684h141v-110h-141v-277h-128v277h-444zM101 387h368v521z" />
<glyph unicode="5" d="M76 84q0 22 17.5 38.5t45.5 16.5q20 0 35 -6t51 -32q58 -40 118 -40q90 0 158.5 68.5t68.5 166.5q0 96 -61 178.5t-168 126.5q-85 35 -230 41l201 408h376l-60 -132h-316l-69 -141q205 -30 325 -152q103 -106 103 -248q0 -83 -33.5 -153.5t-84.5 -120t-114 -79.5 q-89 -43 -183 -43t-137 32.5t-43 70.5z" />
<glyph unicode="6" d="M68 412q0 141 56.5 268t161.5 225t201 132t179 34h45v-28q-103 -10 -167.5 -41t-127.5 -93.5t-104.5 -139.5t-69.5 -183q112 77 224 77q108 0 186.5 -87t78.5 -223q0 -132 -79 -240q-96 -132 -254 -132q-108 0 -183 72q-147 138 -147 359zM215 361q0 -75 27.5 -162 t81.5 -138q40 -36 96 -36q68 0 121 63.5t53 180.5q0 133 -53 229.5t-149 96.5q-30 0 -63.5 -12.5t-99.5 -53.5q-14 -104 -14 -168z" />
<glyph unicode="7" d="M59 801l100 249h563v-30l-350 -1042h-86l313 945h-289q-87 0 -124 -21q-65 -35 -105 -109z" />
<glyph unicode="8" d="M96 239q0 70 47 138.5t161 151.5q-124 102 -160 164t-36 128q0 102 78.5 176t209.5 74q127 0 204.5 -69t77.5 -157q0 -59 -42 -120t-174 -144q136 -105 180 -165q59 -79 59 -167q0 -110 -84 -189t-221 -79q-150 0 -233 94q-67 75 -67 164zM214 243q0 -100 55 -160 t139 -60q83 0 133.5 47.5t50.5 114.5q0 56 -29 100q-55 82 -222 214q-65 -54 -96 -118t-31 -138zM220 874q0 -40 20.5 -80.5t58.5 -76.5l127 -106q93 84 117.5 132.5t24.5 109.5q0 81 -45.5 127t-124.5 46t-128.5 -45.5t-49.5 -106.5z" />
<glyph unicode="9" d="M63 695q0 138 79 245q95 131 248 131q129 0 221 -107q113 -132 113 -326q0 -175 -85.5 -326.5t-239.5 -251.5q-124 -82 -271 -82h-44v29q100 2 187 47t167.5 158t112.5 249q-121 -79 -220 -79q-110 0 -189 85.5t-79 227.5zM200 775q0 -164 69 -256q51 -66 124 -66 q36 0 84.5 17t85.5 48q14 100 14 161q0 75 -25.5 162t-72 133.5t-106.5 46.5q-69 0 -121 -62t-52 -184z" />
<glyph unicode=":" horiz-adv-x="440" d="M136 64q0 36 25.5 61.5t60.5 25.5q37 0 62 -25.5t25 -61.5q0 -35 -25.5 -60.5t-61.5 -25.5q-35 0 -60.5 25.5t-25.5 60.5zM138 645q0 35 25 60.5t61 25.5q35 0 60.5 -25.5t25.5 -60.5q0 -36 -25.5 -61t-60.5 -25q-36 0 -61 25t-25 61z" />
<glyph unicode=";" horiz-adv-x="440" d="M110 63q0 38 29 65t71 27q51 0 91 -44.5t40 -118.5q0 -79 -55.5 -147.5t-175.5 -108.5v34q80 26 123.5 81.5t43.5 117.5q0 15 -7 25q-5 7 -11 7q-8 0 -37 -16q-14 -7 -29 -7q-38 0 -60.5 22.5t-22.5 62.5zM132 646q0 36 25.5 60.5t60.5 24.5q36 0 61 -24.5t25 -60.5 q0 -35 -25 -60.5t-61 -25.5q-35 0 -60.5 25.5t-25.5 60.5z" />
<glyph unicode="&#x3c;" horiz-adv-x="894" d="M29 509v37l832 361v-67l-716 -311l716 -315v-69z" />
<glyph unicode="=" horiz-adv-x="894" d="M29 368v63h835v-63h-835zM29 620v63h835v-63h-835z" />
<glyph unicode="&#x3e;" horiz-adv-x="894" d="M29 145v66l717 311l-717 315v70l832 -364v-38z" />
<glyph unicode="?" horiz-adv-x="704" d="M71 851q0 88 75 155.5t204 67.5q159 0 234 -93q56 -68 56 -151q0 -57 -25 -116.5t-96 -139.5q-112 -127 -137 -180t-31 -146h-31q5 97 24 161t79 178q46 87 60 134t14 95q0 98 -52.5 156t-127.5 58q-68 0 -106.5 -31.5t-38.5 -68.5q0 -29 23 -71t23 -63q0 -28 -17.5 -47 t-43.5 -19q-32 0 -59 32t-27 89zM255 65q0 36 25 61.5t61 25.5t61 -25.5t25 -61.5t-25.5 -61t-60.5 -25q-36 0 -61 25t-25 61z" />
<glyph unicode="@" horiz-adv-x="1460" d="M75 344q0 204 96 381t269 276.5t367 99.5q161 0 289.5 -66.5t196 -193.5t67.5 -271q0 -141 -63 -280t-160.5 -202.5t-203.5 -63.5q-59 0 -89 28t-30 78q0 43 14 114q-114 -139 -183 -180t-122 -41q-55 0 -97.5 49.5t-42.5 131.5q0 112 73 251t194 227q89 64 160 64 q51 0 85.5 -26.5t47.5 -80.5l25 85l122 17l-91 -308q-50 -174 -61 -220.5t-11 -73.5q0 -25 17 -42t41 -17q57 0 136 56.5t135.5 183.5t56.5 264q0 133 -63.5 245t-180 172t-257.5 60q-179 0 -332 -94.5t-242.5 -273t-89.5 -369.5q0 -178 78.5 -324t221 -220.5t306.5 -74.5 q203 0 367.5 109t254.5 319h45q-70 -212 -253 -343.5t-418 -131.5q-184 0 -342 87t-245.5 247t-87.5 352zM505 227q0 -49 27.5 -79.5t61.5 -30.5q45 0 94.5 34t104 105t79.5 142q43 123 43 200q0 51 -28.5 81.5t-68.5 30.5q-58 0 -118 -61q-87 -90 -149 -243 q-46 -111 -46 -179z" />
<glyph unicode="A" horiz-adv-x="1145" d="M12 0v29q66 11 86 30q39 37 87 151l369 864h27l366 -874q44 -105 80 -136t100 -35v-29h-414v29q63 3 85 20.5t22 43.5q0 34 -31 107l-64 151h-406l-71 -165q-27 -61 -27 -92q0 -24 23 -42t99 -23v-29h-331zM343 409h361l-178 424z" />
<glyph unicode="B" horiz-adv-x="1057" d="M26 0v29h40q66 0 94 41q18 28 18 116v678q0 97 -22 123q-31 34 -90 34h-40v29h454q127 0 203 -19q117 -28 178 -99t61 -163q0 -79 -48 -141t-142 -92q109 -24 164 -75q75 -71 75 -174q0 -78 -49.5 -149.5t-136 -104.5t-263.5 -33h-496zM327 76q89 -21 177 -21 q140 0 213.5 63t73.5 156q0 61 -33.5 117.5t-108.5 89t-185 32.5q-48 0 -82 -1.5t-55 -5.5v-430zM327 577q28 -5 65 -7.5t81 -2.5q113 0 170 24t87 74.5t30 110.5q0 92 -75 157t-219 65q-77 0 -139 -17v-404z" />
<glyph unicode="C" horiz-adv-x="1057" d="M57 509q0 157 70.5 288.5t194 204t269.5 72.5q114 0 225 -56q32 -17 46 -17q21 0 37 14q20 21 28 59h27l24 -357h-24q-48 160 -137 230.5t-213 70.5q-105 0 -189.5 -53t-132.5 -169t-48 -289q0 -142 45.5 -246.5t137.5 -160.5t209 -56q102 0 180.5 44t171.5 174l24 -16 q-79 -140 -184 -205t-250 -65q-261 0 -404 194q-107 143 -107 339z" />
<glyph unicode="D" horiz-adv-x="1145" d="M27 0v29h40q66 0 94 42q17 26 17 115v678q0 98 -22 123q-30 34 -89 34h-40v29h427q236 0 358.5 -53.5t197 -178t74.5 -288.5q0 -219 -133 -366q-149 -164 -455 -164h-469zM327 76q98 -22 164 -22q180 0 298.5 126.5t118.5 341.5q0 218 -118.5 343.5t-304.5 125.5 q-69 0 -158 -23v-892z" />
<glyph unicode="E" horiz-adv-x="968" d="M33 0v29h37q37 0 70 17q25 13 34 37.5t9 101.5v682q0 100 -20 123q-28 31 -93 31h-37v29h808l12 -230h-30q-16 82 -36 113t-59 48q-31 11 -109 11h-288v-415h231q90 0 120 27q40 36 45 126h28v-365h-28q-11 76 -22 98q-14 27 -45.5 42.5t-97.5 15.5h-231v-346 q0 -70 6.5 -85t22 -24t58.5 -9h178q89 0 129 12.5t78 48.5q48 48 98 145h31l-91 -263h-808z" />
<glyph unicode="F" horiz-adv-x="882" d="M26 0v29h37q65 0 94 38q19 24 19 119v678q0 80 -10 105q-8 19 -32 33q-33 19 -71 19h-37v29h781l10 -231h-28q-20 73 -46.5 107.5t-65.5 50t-121 15.5h-232v-412h191q66 0 96.5 29t40.5 115h29v-356h-29q0 62 -15 90.5t-42 42.5t-80 14h-191v-329q0 -80 10 -106 q8 -19 33 -33q34 -18 71 -18h38v-29h-450z" />
<glyph unicode="G" horiz-adv-x="1145" d="M56 509q0 138 66 265q79 151 217 232q115 68 272 68q58 0 104.5 -9.5t132.5 -41.5q44 -16 58 -16q15 0 25.5 13.5t12.5 53.5h29l27 -332h-27q-41 124 -106 187q-94 90 -241 90q-200 0 -305 -158q-87 -134 -87 -319q0 -150 58 -274t152 -181.5t193 -57.5q58 0 112 14.5 t105 43.5v303q0 79 -12 103.5t-37.5 37t-88.5 12.5v30h406v-30h-19q-60 0 -83 -40q-15 -29 -15 -113v-321q-89 -48 -176 -70.5t-193 -22.5q-304 0 -462 195q-118 146 -118 338z" />
<glyph unicode="H" horiz-adv-x="1145" d="M27 0v29h37q65 0 95 38q18 24 18 119v677q0 81 -10 106q-8 19 -32 33q-34 19 -71 19h-37v29h450v-29h-38q-37 0 -71 -18q-24 -12 -33 -37.5t-9 -102.5v-300h487v300q0 81 -10 106q-7 19 -32 33q-33 19 -71 19h-37v29h449v-29h-37q-37 0 -70 -18q-25 -12 -34 -37.5 t-9 -102.5v-677q0 -80 10 -106q8 -19 32 -33q34 -18 71 -18h37v-29h-449v29h37q65 0 94 38q19 24 19 119v319h-487v-319q0 -80 10 -106q8 -19 32 -33q34 -18 71 -18h38v-29h-450z" />
<glyph unicode="I" horiz-adv-x="528" d="M39 0v29h38q65 0 94 38q19 24 19 119v678q0 80 -10 105q-8 19 -32 33q-34 19 -71 19h-38v29h450v-29h-38q-64 0 -93 -38q-20 -25 -20 -119v-678q0 -80 10 -106q8 -19 33 -33q33 -18 70 -18h38v-29h-450z" />
<glyph unicode="J" horiz-adv-x="617" d="M33 94q0 38 19 58q25 24 59 24q25 0 45 -16.5t50 -86.5q18 -42 46 -42q20 0 38.5 25.5t18.5 90.5v717q0 80 -10 105q-8 19 -33 33q-33 19 -70 19h-38v29h450v-29h-38q-65 0 -94 -38q-19 -25 -19 -119v-513q0 -119 -25.5 -192.5t-89 -128t-153.5 -54.5q-73 0 -114.5 36 t-41.5 82z" />
<glyph unicode="K" horiz-adv-x="1145" d="M26 0v29h37q65 0 95 38q18 24 18 119v678q0 80 -10 106q-7 18 -31 32q-34 19 -72 19h-37v29h448v-29h-36q-36 0 -70 -18q-24 -12 -33.5 -37t-9.5 -102v-321q16 14 106 98q230 210 278 281q21 31 21 54q0 18 -16.5 31.5t-54.5 13.5h-24v29h385v-29q-34 -1 -62 -9.5 t-68 -33t-99 -78.5q-17 -15 -157 -159l-160 -159l387 -385q95 -95 162.5 -129.5t134.5 -38.5v-29h-499v29q45 0 64.5 15t19.5 33q0 19 -7.5 33.5t-48.5 55.5l-362 358v-338q0 -80 10 -106q8 -19 33 -33q33 -18 70 -18h36v-29h-448z" />
<glyph unicode="L" horiz-adv-x="968" d="M32 0v29h39q67 0 95 43q17 25 17 115v677q0 98 -22 123q-30 34 -90 34h-39v29h475v-29h-9q-76 1 -108 -15q-34 -16 -46.5 -41t-12.5 -119v-659q0 -65 13 -89q9 -16 28.5 -23.5t120.5 -7.5h77q120 0 169 17.5t89 63t81 142.5l25 -5l-90 -285h-812z" />
<glyph unicode="M" horiz-adv-x="1409" d="M26 0v29h37q67 0 95 40q17 25 17 113v686q0 69 -16 100q-10 23 -39 38t-94 15v29h298l380 -822l375 822h297v-29h-36q-68 0 -95 -40q-17 -25 -17 -113v-686q0 -97 21 -121q29 -32 91 -32h36v-29h-446v29h38q67 0 94 40q17 25 17 113v701l-405 -883h-25l-406 883v-701 q0 -97 21 -121q29 -32 90 -32h38v-29h-366z" />
<glyph unicode="N" horiz-adv-x="1145" d="M-21 1021v29h285l642 -788v606q0 96 -22 120q-29 33 -91 33h-36v29h365v-29h-37q-66 0 -94 -40q-17 -25 -17 -113v-885h-28l-692 845v-646q0 -97 21 -121q29 -32 90 -32h37v-29h-365v29h37q67 0 95 40q17 25 17 113v730q-46 53 -69.5 70t-69.5 32q-22 7 -68 7z" />
<glyph unicode="O" horiz-adv-x="1145" d="M56 529q0 250 170 408q148 137 354 137q204 0 354 -155.5t150 -387.5q0 -239 -151 -397t-366 -158q-216 0 -363.5 154t-147.5 399zM233 532q0 -257 110 -396q84 -105 223 -105q148 0 244 115.5t96 363.5q0 269 -106 402q-85 105 -235 105q-141 0 -226 -104 q-106 -130 -106 -381z" />
<glyph unicode="P" horiz-adv-x="882" d="M26 0v29h40q66 0 95 43q15 24 15 114v678q0 99 -20 123q-31 34 -90 34h-40v29h385q141 0 222 -29.5t137 -98t56 -163.5q0 -128 -85 -208.5t-239 -80.5q-38 0 -82.5 5.5t-94.5 15.5v-305q0 -99 22 -123q29 -34 89 -34h40v-29h-450zM325 536q41 -8 73 -12t54 -4 q81 0 139 62.5t58 161.5q0 68 -27.5 126.5t-79 87.5t-116.5 29q-39 0 -101 -15v-436z" />
<glyph unicode="Q" horiz-adv-x="1145" d="M56 527q0 235 152.5 391t368.5 156q206 0 356.5 -156t150.5 -394q0 -193 -107 -338.5t-279 -197.5q79 -136 171 -200t208 -74v-24q-106 3 -227.5 42.5t-230.5 108.5t-188 147q-111 45 -176 96q-95 75 -147 184.5t-52 258.5zM233 527q0 -255 110 -392q85 -106 225 -106 q146 0 235 106q104 125 104 370q0 188 -57 316q-44 99 -117.5 146t-164.5 47q-141 0 -227 -101q-108 -126 -108 -386z" />
<glyph unicode="R" horiz-adv-x="1057" d="M27 0v29h40q66 0 95 43q16 24 16 114v678q0 99 -22 123q-30 34 -89 34h-40v29h382q168 0 247 -24.5t134.5 -90t55.5 -156.5q0 -96 -63 -167.5t-196 -100.5l217 -301q74 -104 127.5 -138t139.5 -43v-29h-280l-355 491q-40 -2 -64 -2q-11 0 -22.5 0.5t-23.5 1.5v-305 q0 -99 22 -123q29 -34 88 -34h41v-29h-450zM326 540h25.5h17.5q150 0 226.5 64.5t76.5 164.5q0 99 -61.5 160.5t-163.5 61.5q-45 0 -121 -15v-436z" />
<glyph unicode="S" horiz-adv-x="882" d="M99 797q0 113 86.5 195t220.5 82q84 0 178 -41q43 -20 61 -20q20 0 32.5 12t20.5 49h29v-363h-29q-14 104 -50 166t-102.5 98.5t-137.5 36.5q-81 0 -133.5 -49.5t-52.5 -111.5q0 -48 33 -88q48 -58 229 -155q147 -79 200.5 -121t82.5 -99.5t29 -119.5 q0 -119 -92.5 -205.5t-237.5 -86.5q-46 0 -86 7q-24 4 -99.5 28.5t-95.5 24.5q-19 0 -30.5 -12t-16.5 -48h-29v360h29q20 -113 54 -169t104 -93.5t154 -37.5q96 0 152.5 51.5t56.5 120.5q0 39 -21.5 78.5t-66.5 73.5q-30 23 -164.5 98.5t-191.5 120.5t-86.5 99t-29.5 119z " />
<glyph unicode="T" horiz-adv-x="968" d="M48 803l12 247h857l12 -247h-30q-8 65 -23 93q-24 45 -64 66.5t-105 21.5h-147v-802q0 -97 21 -121q29 -32 90 -32h36v-29h-445v29h38q66 0 94 40q17 25 17 113v802h-126q-74 0 -105 -11q-40 -15 -68.5 -56.5t-34.5 -113.5h-29z" />
<glyph unicode="U" horiz-adv-x="1145" d="M9 1021v29h453v-29h-40q-65 0 -93 -41q-19 -28 -19 -116v-458q0 -61 11 -140t40.5 -123t85 -72.5t135.5 -28.5q103 0 184.5 45t111 115t29.5 237v425q0 98 -22 123q-30 34 -89 34h-40v29h372v-29h-40q-62 0 -95 -52q-16 -24 -16 -111v-426q0 -158 -31.5 -245t-123 -149.5 t-249.5 -62.5q-172 0 -261 59.5t-126 160.5q-25 69 -25 259v410q0 97 -26.5 127t-86.5 30h-39z" />
<glyph unicode="V" horiz-adv-x="1145" d="M14 1021v29h429v-29q-73 -7 -94.5 -25t-21.5 -46q0 -38 35 -120l267 -616l248 608q36 90 36 125q0 22 -22.5 42.5t-75.5 29.5q-4 0 -13 2v29h323v-29q-55 -10 -84 -36q-41 -38 -73 -116l-366 -893h-28l-394 905q-30 69 -42 85q-20 24 -48 37.5t-76 17.5z" />
<glyph unicode="W" horiz-adv-x="1496" d="M21 1021v29h388v-29h-18q-41 0 -62.5 -18.5t-21.5 -45.5t34 -124l206 -589l174 501l-31 88l-24 70q-17 39 -37 68q-10 15 -25 25q-19 14 -38 20q-15 5 -47 5v29h409v-29h-28q-43 0 -63 -18.5t-20 -50.5q0 -39 34 -138l202 -570l199 578q34 96 34 133q0 18 -11 33.5 t-28 21.5q-29 11 -77 11v29h314v-29q-41 0 -66.5 -15t-49.5 -55q-15 -27 -48 -129l-293 -846h-31l-239 671l-238 -671h-28l-311 872q-35 97 -45 115q-15 29 -41.5 43.5t-72.5 14.5z" />
<glyph unicode="X" horiz-adv-x="1145" d="M12 0v29q39 4 68 16q48 20 91 54t99 105l248 312l-207 303q-84 123 -143 161.5t-135 40.5v29h485v-29q-62 -2 -85 -20t-23 -40q0 -28 37 -83l161 -241l187 236q32 42 39.5 57.5t7.5 31.5t-9 29q-12 16 -29.5 22.5t-73.5 7.5v29h372v-29q-44 -2 -72 -14q-42 -18 -76.5 -48 t-98.5 -111l-208 -267l225 -336q94 -139 139.5 -175.5t114.5 -40.5v-29h-450v29q45 0 66 9q17 7 27 21.5t10 28.5q0 18 -7 36q-5 13 -42 68l-178 269l-220 -281q-35 -45 -42 -60.5t-7 -31.5q0 -25 21 -41t80 -18v-29h-372z" />
<glyph unicode="Y" horiz-adv-x="1145" d="M15 1021v29h449v-29h-24q-36 0 -66.5 -17t-30.5 -51q0 -28 47 -101l219 -338l206 323q46 73 46 109q0 22 -11 39t-32 26.5t-63 9.5v29h367v-29h-21q-20 0 -58.5 -18t-70.5 -51t-78 -108l-253 -399v-263q0 -97 22 -121q29 -32 92 -32h34v-29h-445v29h37q66 0 94 40 q17 25 17 113v248l-288 440q-51 77 -69 96.5t-75 46.5q-16 8 -45 8z" />
<glyph unicode="Z" horiz-adv-x="968" d="M20 0v29l674 958h-336q-84 0 -121.5 -18.5t-57.5 -52.5t-36 -129h-29l21 263h777l-690 -987h430q100 0 153 43.5t94 176.5l25 -5l-49 -278h-855z" />
<glyph unicode="[" horiz-adv-x="528" d="M130 -314v1388h341v-62h-225v-1266h225v-60h-341z" />
<glyph unicode="\" horiz-adv-x="440" d="M2 1101h62l380 -1123h-62z" />
<glyph unicode="]" horiz-adv-x="528" d="M58 -254h225v1266h-225v62h341v-1389h-341v61z" />
<glyph unicode="^" horiz-adv-x="744" d="M29 516l333 555h23l329 -555h-71l-271 454l-271 -454h-72z" />
<glyph unicode="_" d="M-13 -277h820v-65h-820v65z" />
<glyph unicode="`" horiz-adv-x="528" d="M91 1076h173l82 -267h-27z" />
<glyph unicode="a" horiz-adv-x="704" d="M57 168q0 52 23 90q31 52 110 98.5t261 113.5v28q0 106 -33.5 145.5t-97.5 39.5q-49 0 -78 -27q-29 -26 -29 -60l1 -45q0 -36 -18 -55t-47 -19t-47 20t-18 55q0 66 68 122t191 56q94 0 155 -32q45 -24 67 -75q14 -33 14 -136v-241q0 -101 4 -124t12.5 -30.5t20.5 -7.5 t22 5q16 10 62 57v-44q-86 -116 -165 -116q-38 0 -60.5 26.5t-23.5 89.5q-109 -84 -137 -97q-42 -20 -89 -20q-73 0 -120.5 50.5t-47.5 132.5zM187 204q0 -55 33 -92t76 -37q59 0 155 77v271q-117 -47 -151 -66q-61 -34 -87 -71.5t-26 -81.5z" />
<glyph unicode="b" d="M-4 1014l213 87h35v-514q103 143 222 143q109 0 190.5 -93.5t81.5 -254.5q0 -189 -126 -305q-107 -99 -240 -99q-62 0 -125.5 22.5t-130.5 67.5v735q0 120 -6 148t-18 38t-31 10q-22 0 -54 -12zM244 113q39 -39 81.5 -58.5t86.5 -19.5q70 0 131 77.5t61 224.5 q0 137 -61 210t-138 73q-41 0 -82 -21q-31 -15 -79 -62v-424z" />
<glyph unicode="c" horiz-adv-x="704" d="M54 354q0 167 99.5 271.5t238.5 104.5q105 0 172.5 -55.5t67.5 -114.5q0 -30 -19 -48t-53 -18q-46 0 -69 29q-13 16 -17.5 62t-31.5 70q-27 23 -75 23q-78 0 -125 -57q-62 -76 -62 -201q0 -127 62 -224t168 -97q76 0 136 52q43 36 83 129l23 -11q-29 -140 -112.5 -215.5 t-185.5 -75.5q-120 0 -210 101.5t-90 274.5z" />
<glyph unicode="d" d="M53 325q0 153 96 279.5t247 126.5q93 0 154 -60v131q0 121 -5.5 149t-18 38t-31.5 10q-20 0 -53 -12l-10 27l211 87h35v-820q0 -125 6 -152.5t18.5 -38t29.5 -10.5q21 0 56 13l8 -27l-210 -88h-36v102q-52 -54 -101.5 -78t-106.5 -24q-116 0 -202.5 97.5t-86.5 249.5z M194 386q0 -156 68 -239.5t152 -83.5q71 0 136 71v365q-4 53 -27.5 96.5t-61.5 65.5t-75 22q-68 0 -121 -61q-71 -81 -71 -236z" />
<glyph unicode="e" horiz-adv-x="704" d="M59 345q0 182 93 284t234 102q119 0 196 -78.5t77 -210.5h-490q-1 -158 76 -248q78 -90 182 -90q70 0 121.5 38.5t86.5 131.5l24 -15q-17 -107 -95 -194t-196 -87q-127 0 -218 99.5t-91 267.5zM169 487h328q-4 68 -16 96q-20 43 -58 68t-80 25q-64 0 -115 -50t-59 -139z " />
<glyph unicode="f" horiz-adv-x="528" d="M61 653v56h138v46q0 106 34 180t104 119t158 45q81 0 149 -53q45 -34 45 -78q0 -23 -20 -43.5t-44 -20.5q-17 0 -37 13t-48.5 55t-52.5 57q-24 14 -54 14q-35 0 -60 -19t-35.5 -58.5t-10.5 -205.5v-51h182v-56h-182v-466q0 -99 21 -125q29 -34 77 -34h64v-28h-423v28h32 q30 0 56 15.5t35.5 41.5t9.5 102v466h-138z" />
<glyph unicode="g" d="M47 -194q0 18 9 37q13 29 54 80q5 7 79 83q-40 24 -57 43t-17 43q0 27 22 63.5t102 103.5q-65 31 -100 88t-35 126q0 105 79.5 181t203.5 76q101 0 176 -50h150q33 0 38.5 -2t7.5 -6q5 -7 5 -25q0 -20 -4 -28q-2 -4 -8 -6t-39 -2h-92q43 -56 43 -143q0 -99 -76 -169.5 t-203 -70.5q-53 0 -108 16q-34 -30 -46 -52t-12 -37q0 -13 13 -25.5t50 -18.5q21 -3 108 -5q160 -4 207 -11q72 -10 115 -53.5t43 -106.5q0 -87 -82 -164q-121 -113 -315 -113q-150 0 -253 67q-58 39 -58 81zM158 -136q0 -37 45 -65q77 -48 223 -48q140 0 206 49t66 105 q0 40 -39 57q-41 17 -160 20q-174 5 -268 18q-36 -39 -54.5 -73.5t-18.5 -62.5zM239 507q0 -122 53 -190q40 -51 102 -51q59 0 97 44t38 139q0 123 -54 193q-39 51 -101 51q-57 0 -96 -46t-39 -140z" />
<glyph unicode="h" d="M10 1014l212 87h36v-519q86 94 136 121t101 27q60 0 103.5 -33.5t64.5 -104.5q14 -49 14 -181v-251q0 -67 11 -92q8 -18 26.5 -29t68.5 -11v-28h-349v28h16q50 0 69.5 15t26.5 44q3 13 3 73v251q0 116 -12 152.5t-38.5 54.5t-63.5 18q-38 0 -79 -20t-98 -81v-375 q0 -73 8 -90.5t30 -29.5t76 -12v-28h-351v28q47 0 74 15q16 7 25 29t9 88v642q0 121 -5.5 149t-17.5 38t-32 10q-17 0 -53 -12z" />
<glyph unicode="i" horiz-adv-x="440" d="M46 643l214 87h34v-570q0 -66 9.5 -88t28.5 -33t70 -11v-28h-345v28q52 0 70 10t28.5 33t10.5 89v273q0 116 -7 150q-6 25 -17.5 34.5t-31.5 9.5q-22 0 -53 -12zM151 1022q0 33 23 56t56 23q32 0 55 -23t23 -56q0 -32 -23 -55t-55 -23q-33 0 -56 23t-23 55z" />
<glyph unicode="j" horiz-adv-x="440" d="M-122 -264q0 27 19 46.5t45 19.5q20 0 41 -10q13 -6 50.5 -39.5t63.5 -33.5q18 0 36 14.5t26.5 48t8.5 145.5v505q0 117 -7 150q-5 26 -17 35.5t-32 9.5q-21 0 -52 -12l-11 28l213 87h34v-714q0 -182 -77.5 -270t-201.5 -88q-70 0 -104.5 25.5t-34.5 52.5zM150 1022 q0 33 23.5 56t55.5 23q33 0 56.5 -23t23.5 -56t-23.5 -56t-56.5 -23q-32 0 -55.5 23t-23.5 56z" />
<glyph unicode="k" d="M13 0v28q54 0 81 13q17 9 25 26q12 26 12 89v645q0 123 -5.5 150.5t-18 38t-32.5 10.5q-16 0 -49 -13l-13 27l211 87h35v-705l181 164q57 52 66 66q6 9 6 19q0 15 -12.5 26.5t-42.5 12.5v25h308v-25q-63 -1 -105 -19t-93 -64l-182 -168l182 -229q76 -96 103 -121 q37 -37 65 -47q19 -8 67 -8v-28h-345v28q30 1 40.5 9t10.5 23q0 17 -31 57l-218 278v-236q0 -68 10 -90t27.5 -31t77.5 -10v-28h-361z" />
<glyph unicode="l" horiz-adv-x="440" d="M47 1014l212 87h34v-941q0 -66 10 -88t30 -33t75 -11v-28h-348v28q49 0 67 10t28 33t10 89v644q0 120 -5.5 147.5t-17.5 37.5t-31 10q-20 0 -51 -12z" />
<glyph unicode="m" horiz-adv-x="1233" d="M13 643l214 87h33v-151q77 77 91 89q35 29 75.5 45.5t79.5 16.5q67 0 115 -39t64 -112q80 93 135 122t113 29q56 0 100 -29t69 -95q17 -45 17 -141v-305q0 -66 10 -91q8 -17 29 -29t68 -12v-28h-350v28h15q46 0 71 18q18 12 26 39q3 13 3 75v305q0 87 -21 122 q-30 50 -97 50q-41 0 -82.5 -20.5t-100.5 -76.5l-1 -8l1 -34v-338q0 -73 8.5 -90.5t31 -29.5t76.5 -12v-28h-359v28q59 0 81 14t31 42q4 13 4 76v305q0 87 -26 125q-34 49 -95 49q-42 0 -83 -22q-64 -34 -99 -77v-380q0 -69 9.5 -90t28.5 -31.5t77 -10.5v-28h-350v28 q49 0 68 10.5t29 33t10 88.5v271q0 117 -7 151q-5 26 -16.5 35.5t-31.5 9.5q-22 0 -52 -12z" />
<glyph unicode="n" d="M9 643l214 87h33v-150q125 150 238 150q58 0 99.5 -29t66.5 -96q17 -46 17 -142v-303q0 -67 11 -91q9 -19 28 -30t70 -11v-28h-351v28h15q49 0 69 15t27 44q4 12 4 73v290q0 97 -25.5 141t-84.5 44q-92 0 -184 -101v-374q0 -72 9 -89q11 -22 29.5 -32.5t77.5 -10.5v-28 h-351v28h15q55 0 73.5 27.5t18.5 104.5v263q0 128 -5.5 156t-17.5 38t-32 10q-22 0 -52 -12z" />
<glyph unicode="o" d="M53 348q0 97 48.5 193.5t127.5 142.5t167 46q161 0 259 -122q83 -105 83 -240q0 -96 -46 -193.5t-126 -147t-178 -49.5q-160 0 -255 128q-80 108 -80 242zM197 413q0 -155 61.5 -267.5t162.5 -112.5q75 0 124 62t49 213q0 189 -82 297q-55 75 -140 75q-41 0 -82.5 -24.5 t-67 -85.5t-25.5 -157z" />
<glyph unicode="p" d="M-5 -310h19h5q40 0 68 16q14 8 22.5 27t8.5 97v670q0 69 -6.5 87.5t-20 28t-36.5 9.5q-19 0 -47 -11l-10 25l219 88h29v-166q55 94 110.5 131.5t116.5 37.5q107 0 178 -84q87 -102 87 -266q0 -183 -105 -303q-87 -99 -218 -99q-57 0 -99 17q-31 11 -70 46v-216 q0 -73 9 -92.5t31 -31t80 -11.5v-29h-371v29zM246 251q0 -86 7 -113q11 -45 53 -79t107 -34q77 0 125 60q63 79 63 222q0 163 -72 250q-49 61 -117 61q-37 0 -74 -19q-28 -14 -92 -84v-264z" />
<glyph unicode="q" d="M53 323q0 180 106.5 293.5t257.5 113.5q44 0 81.5 -12.5t66.5 -37.5q45 22 86 50h26v-912q0 -68 9.5 -87.5t29 -30t77.5 -10.5v-29h-358v29h15q43 0 65 12q16 9 25.5 31t9.5 85v305q-71 -84 -123.5 -114.5t-109.5 -30.5q-103 0 -183.5 94t-80.5 251zM183 379 q0 -143 63 -217.5t152 -74.5q46 0 81.5 20t70.5 65v333q0 58 -15.5 91t-54 56.5t-87.5 23.5q-86 0 -148 -73.5t-62 -223.5z" />
<glyph unicode="r" horiz-adv-x="528" d="M10 643l214 87h33v-160q89 160 183 160q42 0 70 -26t28 -60q0 -30 -20 -51t-48 -21q-27 0 -61 26.5t-50 26.5q-14 0 -30 -15q-35 -32 -72 -105v-339q0 -59 15 -89q10 -21 35.5 -35t73.5 -14v-28h-363v28q54 0 80 17q20 12 27 39q4 14 4 75v275q0 124 -5 147.5t-18.5 34.5 t-33.5 11q-24 0 -54 -12z" />
<glyph unicode="s" horiz-adv-x="617" d="M77 525q0 87 60 146t156 59q41 0 101 -18q39 -12 53 -12q12 0 19 5.5t16 24.5h26v-242h-26q-29 114 -75 155t-118 41q-54 0 -87 -28.5t-33 -63.5q0 -43 25 -74q23 -32 97 -68l113 -54q157 -77 157 -202q0 -97 -73 -156.5t-164 -59.5q-65 0 -148 24q-26 7 -42 7 q-18 0 -28 -20h-26v253h26q22 -108 83 -163t137 -55q53 0 87 31.5t34 75.5q0 53 -37.5 89.5t-150 92t-147.5 100.5q-35 44 -35 112z" />
<glyph unicode="t" horiz-adv-x="440" d="M15 655v25q43 17 87.5 58t79.5 96q18 30 49 108h24v-233h166v-54h-166v-460q0 -69 20 -93t51 -24q25 0 49 16t38 47h30q-27 -76 -76.5 -114.5t-102.5 -38.5q-36 0 -70 20t-50 56.5t-16 113.5v477h-113z" />
<glyph unicode="u" d="M2 680v29h248v-474q0 -100 34.5 -130.5t83.5 -30.5q33 0 75 20.5t100 79.5v402q0 60 -22 81.5t-91 22.5v29h241v-430q0 -123 6 -150.5t18.5 -38t29.5 -10.5q24 0 54 13l11 -27l-212 -88h-35v150q-91 -99 -139 -124.5t-101 -25.5q-60 0 -103.5 34.5t-60.5 89t-17 153.5 v316q0 51 -11 70t-33 29q-20 10 -67 10h-9z" />
<glyph unicode="v" d="M13 680v29h334v-29h-22q-30 0 -46 -14.5t-16 -39.5q0 -27 16 -64l165 -392l166 407q18 43 18 65q0 11 -6 18q-9 12 -22 16t-54 4v29h232v-29q-40 -3 -56 -16q-27 -23 -49 -77l-251 -609h-32l-253 599q-17 41 -32.5 59.5t-39.5 30.5q-13 7 -52 13z" />
<glyph unicode="w" horiz-adv-x="1145" d="M10 680v29h297v-29q-41 -3 -53.5 -14.5t-12.5 -33.5q0 -24 13 -58l152 -408l152 332l-40 105q-19 46 -49 64q-17 11 -63 13v29h337v-29q-56 -2 -79 -20q-15 -12 -15 -39q0 -16 6 -32l161 -407l149 392q16 42 16 67q0 15 -15.5 26.5t-59.5 12.5v29h224v-29 q-67 -10 -99 -91l-237 -611h-32l-177 453l-207 -453h-28l-228 596q-22 57 -43.5 76.5t-68.5 29.5z" />
<glyph unicode="x" d="M21 680v29h333v-29q-31 0 -44 -10.5t-13 -28.5q0 -19 27 -57q9 -13 26 -39l50 -81l58 81q56 77 56 97q0 16 -13 27t-43 11v29h240v-29q-38 -2 -66 -21q-38 -26 -103 -114l-97 -129l176 -254q65 -94 93 -113t72 -21v-28h-334v28q35 0 54 15q15 11 15 29t-50 90l-104 151 l-113 -151q-53 -71 -53 -84q0 -18 17.5 -33.5t52.5 -16.5v-28h-232v28q28 4 49 19q29 23 99 115l149 197l-135 195q-57 84 -88.5 105t-78.5 21z" />
<glyph unicode="y" d="M9 680v29h331v-29h-16q-35 0 -52.5 -15t-17.5 -37q0 -30 25 -84l173 -357l159 391q13 32 13 63q0 14 -6 21q-6 8 -19 13t-46 5v29h230v-29q-28 -3 -43.5 -12t-34.5 -35q-7 -11 -26 -59l-289 -708q-42 -103 -109.5 -155.5t-130.5 -52.5q-46 0 -75 26.5t-29 60.5 q0 32 21 52t58 20q26 0 70 -17q31 -12 39 -12q23 0 50.5 24t55.5 93l50 123l-255 535q-11 24 -37 59q-19 27 -31 37q-18 12 -58 21z" />
<glyph unicode="z" horiz-adv-x="704" d="M32 0v28l470 627h-232q-75 0 -98 -10t-38 -37q-21 -38 -24 -96h-31l5 197h594v-29l-475 -628h258q82 0 111 13.5t46 47.5q13 25 21 104h27l-9 -217h-625z" />
<glyph unicode="{" horiz-adv-x="761" d="M219 364v32q83 10 130 58t47 105q0 41 -18 114.5t-18 129.5q0 106 81 193.5t210 104.5v-27q-91 -22 -133 -71t-42 -108q0 -46 17.5 -120.5t17.5 -127.5q0 -78 -57.5 -151.5t-170.5 -113.5q111 -41 169.5 -116.5t58.5 -153.5q0 -52 -17.5 -127t-17.5 -120q0 -59 42 -108.5 t133 -71.5v-27q-129 18 -210 105t-81 193q0 56 18 129.5t18 114.5q0 56 -47 104.5t-130 59.5z" />
<glyph unicode="|" horiz-adv-x="317" d="M125 -342v1443h64v-1443h-64z" />
<glyph unicode="}" horiz-adv-x="761" d="M137 -315q91 22 133 71t42 109q0 45 -18 120t-18 126q0 79 58 152.5t171 114.5q-111 41 -170 116t-59 153q0 53 18 127.5t18 120.5q0 59 -42 108t-133 71v27q129 -17 210 -104.5t81 -193.5q0 -56 -18 -129.5t-18 -114.5q0 -56 47 -104.5t130 -58.5v-32 q-83 -11 -130 -59.5t-47 -104.5q0 -41 18 -114.5t18 -129.5q0 -105 -81 -192.5t-210 -105.5v27z" />
<glyph unicode="~" horiz-adv-x="858" d="M15 310q5 104 57.5 159.5t124.5 55.5q34 0 69 -11q81 -23 212 -79.5t185 -56.5q58 0 97.5 37.5t46.5 106.5h34q-3 -100 -57 -157t-132 -57q-36 0 -77 12t-212 82q-119 49 -169 49q-55 0 -92 -33t-52 -108h-35z" />
<glyph unicode="&#xa1;" horiz-adv-x="528" d="M176 -224q0 18 4 51l69 627h30l69 -627q3 -41 3 -61q0 -49 -25.5 -78.5t-61.5 -29.5t-62 29.5t-26 88.5zM180 668q0 36 24.5 61t60.5 25t61 -25t25 -61t-25.5 -60.5t-60.5 -24.5q-36 0 -60.5 24.5t-24.5 60.5z" />
<glyph unicode="&#xa2;" d="M100 350q0 196 121 302q93 81 212 81q15 0 47 -3l108 296h56l-112 -311q78 -35 107 -67q37 -42 37 -89q0 -30 -18.5 -48t-54.5 -18q-43 0 -67 29q-14 17 -20 64q-3 24 -13 50l-176 -488q43 -30 72 -40q22 -7 54 -7q47 0 90.5 19.5t66 46.5t63.5 113l24 -10 q-37 -145 -127 -226q-69 -63 -171 -63q-62 0 -125 28l-110 -302h-54l120 330q-63 59 -91 119q-39 85 -39 194zM224 414q0 -58 13.5 -106.5t48.5 -113.5l173 476q-22 9 -46 9q-79 0 -126 -57q-63 -78 -63 -208z" />
<glyph unicode="&#xa3;" d="M47 81q0 52 35.5 86.5t91.5 34.5q13 0 29.5 -1.5t36.5 -4.5q1 20 1.5 34.5t0.5 24.5q0 69 -16 255h-150v74h150q-10 115 -10 154q0 94 38 172t105 119.5t143 41.5q98 0 147 -52.5t49 -105.5q0 -24 -19 -43.5t-41 -19.5q-30 0 -49 29q-8 14 -11.5 60t-26.5 68 q-24 22 -67 22q-61 0 -101 -48t-40 -169q0 -57 9 -145q6 -58 8 -83h200v-74h-200q1 -36 1 -53q0 -72 -10.5 -134t-37.5 -143q151 -48 173 -53q40 -9 79 -9q64 0 104.5 29.5t58.5 93.5l28 -6q-16 -125 -80 -189.5t-142 -64.5q-53 0 -95.5 19t-156.5 105q-31 -62 -67 -93 t-77 -31q-39 0 -65 27t-26 73zM91 87q0 -28 15.5 -44.5t35.5 -16.5q25 0 49.5 24t39.5 83q-17 11 -33.5 16.5t-32.5 5.5q-35 0 -54.5 -19t-19.5 -49z" />
<glyph unicode="&#xa4;" d="M21 196l111 112q-79 91 -79 218q0 122 79 219l-111 109l43 45l113 -110q40 35 102 57t119 22q53 0 112.5 -20.5t104.5 -58.5l110 110l45 -45l-111 -109q79 -102 79 -217q0 -119 -79 -220l111 -112l-45 -43l-110 111q-104 -80 -209 -80q-69 0 -133.5 23.5t-95.5 56.5 l-113 -111zM116 524q0 -114 82 -196t198 -82q115 0 197.5 83t82.5 197q0 70 -37.5 138t-104.5 104.5t-138 36.5q-117 0 -198.5 -82.5t-81.5 -198.5z" />
<glyph unicode="&#xa5;" d="M2 272v57h328v111l-12 28h-316v57h291l-165 384q-28 67 -55.5 88.5t-70.5 22.5v30h342v-30q-56 -4 -75 -18t-19 -30q0 -12 14 -46l166 -401l164 390q17 39 17 58q0 16 -17 32q-10 10 -49 13q-7 0 -21 2v30h268v-30q-47 0 -68 -18q-33 -27 -66 -102l-166 -375h300v-57 h-325l-5 -12v-127h330v-57h-330v-83q0 -87 9 -111q7 -17 26 -29q29 -17 66 -17h31v-32h-398v32h25q54 0 80 20q19 15 26 44q3 15 3 93v83h-328z" />
<glyph unicode="&#xa6;" horiz-adv-x="317" d="M125 232h64v-574h-64v574zM125 526v575h64v-575h-64z" />
<glyph unicode="&#xa7;" d="M121 390q0 71 41.5 140.5t129.5 121.5q-52 58 -74 105t-22 96q0 91 63.5 154.5t156.5 63.5q85 0 140 -51.5t55 -118.5q0 -30 -20 -53q-14 -17 -41 -17q-26 0 -43 18t-17 42q0 11 6 41q4 18 4 33q0 32 -22.5 53t-61.5 21q-57 0 -96 -39.5t-39 -96.5q0 -49 21 -82 q35 -54 117 -114q155 -112 213 -201q40 -63 40 -133t-41 -140.5t-130 -124.5q54 -59 74.5 -102.5t20.5 -93.5q0 -95 -63.5 -158.5t-156.5 -63.5q-83 0 -138.5 53t-55.5 122q0 28 18 48t42 20t41 -18.5t17 -49.5q0 -21 -6 -46t-6 -38q0 -22 19 -37q30 -23 74 -23q52 0 94 40 t42 87q0 48 -24 86q-37 58 -135 132q-145 108 -198 191q-39 63 -39 133zM200 457q0 -55 28 -100q41 -63 153 -148q54 -41 94 -78q119 72 119 170q0 50 -34 105t-140 137q-64 49 -103 85q-117 -70 -117 -171z" />
<glyph unicode="&#xa8;" horiz-adv-x="528" d="M44 950q0 35 24.5 60t59.5 25t59.5 -25t24.5 -60q0 -34 -24.5 -58.5t-59.5 -24.5q-34 0 -59 24.5t-25 58.5zM317 950q0 35 24.5 60t59.5 25t59.5 -25t24.5 -60q0 -34 -24.5 -58.5t-59.5 -24.5t-59.5 24.5t-24.5 58.5z" />
<glyph unicode="&#xa9;" horiz-adv-x="1204" d="M53 525q0 143 74 275t205.5 203t269.5 71q139 0 270.5 -71t205.5 -203t74 -275t-73 -273.5t-203.5 -203t-273.5 -72.5q-142 0 -272.5 72.5t-203.5 203t-73 273.5zM101 525q0 -130 66.5 -249.5t185.5 -186t249 -66.5t249.5 66.5t186 186t66.5 249.5q0 131 -67.5 251 t-187.5 185t-247 65q-126 0 -246 -65t-187.5 -185t-67.5 -251zM248 520q0 149 108 253.5t277 104.5q36 0 59.5 -4.5t83.5 -24.5q20 -6 29 -6q12 0 20.5 6.5t17.5 28.5h31l15 -217h-30q-28 92 -88.5 137.5t-145.5 45.5q-64 0 -113.5 -26.5t-81.5 -70.5q-23 -33 -38.5 -88 t-15.5 -116q0 -165 70.5 -242.5t185.5 -77.5q151 0 242 125l28 -14q-107 -158 -296 -158q-155 0 -256.5 100.5t-101.5 243.5z" />
<glyph unicode="&#xaa;" horiz-adv-x="437" d="M-5 705q0 34 17 60q24 35 83 72q40 24 168 76q0 85 -20.5 111t-61.5 26q-37 0 -55 -17t-18 -52t-12.5 -51t-32.5 -16q-17 0 -30 13t-13 34q0 42 44 76t137 34q71 0 109.5 -24t49 -49.5t10.5 -84.5v-168q0 -41 2 -48q2 -10 8 -15q5 -5 10 -5q11 0 45 23v-37 q-57 -41 -76 -49t-39 -8t-35 16t-22 58q-49 -35 -90.5 -53t-75.5 -18q-41 0 -71.5 29.5t-30.5 66.5zM103 741q0 -26 19.5 -46t49.5 -20q17 0 40 8.5t51 25.5v175q-93 -31 -126.5 -68t-33.5 -75z" />
<glyph unicode="&#xab;" d="M50 359l299 364h44l-189 -364l189 -365h-44zM393 359l305 364h45l-188 -364l188 -365h-45z" />
<glyph unicode="&#xac;" horiz-adv-x="894" d="M28 617v63h836v-315h-61v252h-775z" />
<glyph unicode="&#xad;" horiz-adv-x="528" d="M64 297v117h400v-117h-400z" />
<glyph unicode="&#xae;" horiz-adv-x="1204" d="M53 525q0 143 74 275t205.5 203t269.5 71q139 0 270.5 -71t205.5 -203t74 -275t-73 -273.5t-203.5 -203t-273.5 -72.5q-142 0 -272.5 72.5t-203.5 203t-73 273.5zM101 525q0 -130 66.5 -249.5t185.5 -186t249 -66.5t249.5 66.5t186 186t66.5 249.5q0 131 -67.5 251 t-187.5 185t-247 65q-126 0 -246 -65t-187.5 -185t-67.5 -251zM289 193v25q38 0 53.5 9t22.5 26q5 12 5 72v405q0 57 -2 67q-6 18 -20 27.5t-49 9.5v28h299q112 0 170.5 -50.5t58.5 -122.5q0 -59 -39.5 -103.5t-131.5 -68.5l161 -231q30 -41 53 -56q15 -9 41 -12v-25h-142 l-228 313h-59v-239q5 -26 22.5 -37.5t69.5 -11.5v-25h-285zM482 539q92 0 134 18t64.5 50t22.5 73q0 63 -44 105.5t-112 42.5q-29 0 -65 -12v-277z" />
<glyph unicode="&#xaf;" d="M-13 1132v65h820v-65h-820z" />
<glyph unicode="&#xb0;" horiz-adv-x="634" d="M76 834q0 99 69 169t168 70q100 0 169.5 -70t69.5 -169q0 -98 -69.5 -167.5t-169.5 -69.5q-98 0 -167.5 69.5t-69.5 167.5zM141 835q0 -71 50 -121.5t122 -50.5t122.5 50.5t50.5 121.5q0 72 -50.5 122.5t-122.5 50.5t-122 -50.5t-50 -122.5z" />
<glyph unicode="&#xb1;" horiz-adv-x="870" d="M6 109v63h386v323h-386v64h386v385h62v-385h387v-64h-387v-323h387v-63h-835z" />
<glyph unicode="&#xb2;" horiz-adv-x="475" d="M15 514v22q192 149 254 243q39 57 39 110q0 48 -32 80t-81 32q-44 0 -77.5 -23t-50.5 -69h-34q10 76 59.5 119t127.5 43q82 0 133.5 -45t51.5 -100q0 -51 -37 -109q-58 -91 -229 -229h144q68 0 90 9.5t37 34.5h35l-47 -118h-383z" />
<glyph unicode="&#xb3;" horiz-adv-x="475" d="M34 551q0 13 13 24t33 11q21 0 62 -18.5t71 -18.5q43 0 74 30.5t31 71.5q0 35 -20.5 66.5t-52.5 44.5q-47 17 -83 17h-23v22q59 0 99.5 36.5t40.5 83.5q0 38 -25.5 62t-67.5 24q-66 0 -114 -68l-29 12q27 58 62 84q50 36 116 36q71 0 112 -35.5t41 -78.5q0 -52 -81 -120 q55 -20 83.5 -57.5t28.5 -82.5q0 -80 -66.5 -137.5t-190.5 -57.5q-65 0 -94 19q-20 13 -20 30z" />
<glyph unicode="&#xb4;" horiz-adv-x="528" d="M183 809l81 267h173l-228 -267h-26z" />
<glyph unicode="&#xb5;" horiz-adv-x="913" d="M104 -258q0 36 22 128q16 62 17 80q9 80 9 139v58v562h127v-413q0 -112 14 -153q10 -31 37 -50t59 -19q91 0 182 103v532h128v-506q0 -78 6 -102q6 -18 19 -28.5t28 -10.5q20 0 34 17q20 24 28 79h33q-7 -94 -49 -137t-104 -43q-61 0 -93 45q-24 34 -30 102 q-67 -79 -125 -113t-118 -34q-41 0 -71 17q-22 12 -49 49q-1 -24 -1 -35q0 -62 27 -185q10 -48 10 -81q0 -37 -22 -61t-51 -24t-48 22.5t-19 61.5z" />
<glyph unicode="&#xb6;" horiz-adv-x="718" d="M-11 759q0 85 33 140q45 74 120 112.5t195 38.5h384v-43h-103v-1349h-56v1349h-145v-1349h-56v807q-148 6 -221 39t-112 101.5t-39 153.5z" />
<glyph unicode="&#xb7;" horiz-adv-x="396" d="M112 525q0 35 25.5 60.5t60.5 25.5q37 0 61.5 -25.5t24.5 -60.5q0 -36 -25 -61t-61 -25q-35 0 -60.5 25t-25.5 61z" />
<glyph unicode="&#xb8;" horiz-adv-x="528" d="M145 -263q21 -3 37 -3q39 0 66.5 26t27.5 59q0 23 -18 40t-44 17q-8 0 -20 -1l85 137h47l-39 -61q49 -12 73 -41.5t24 -71.5q0 -55 -46.5 -97.5t-120.5 -42.5q-28 0 -72 6v33z" />
<glyph unicode="&#xb9;" horiz-adv-x="475" d="M105 1004l159 67h27v-458q0 -46 5 -57q4 -7 12 -11q12 -6 61 -6v-25h-251v25q49 0 62 5q9 4 13 12.5t4 56.5v289q0 55 -4 73q-3 13 -8.5 18t-14.5 5q-16 0 -52 -16z" />
<glyph unicode="&#xba;" horiz-adv-x="491" d="M22 832q0 107 64 173t165 66q96 0 159 -65.5t63 -161.5t-69 -165.5t-163 -69.5q-92 0 -155.5 63t-63.5 160zM132 892q0 -123 53 -199q30 -44 79 -44q44 0 73 34t29 109q0 121 -55 198q-34 48 -82 48q-40 0 -68.5 -35t-28.5 -111z" />
<glyph unicode="&#xbb;" d="M50 -6l188 364l-188 365h44l305 -365l-305 -364h-44zM399 -6l189 364l-189 365h45l299 -365l-299 -364h-45z" />
<glyph unicode="&#xbc;" horiz-adv-x="1189" d="M104 1004l158 67h27v-458q0 -46 5 -57q4 -7 13 -11q12 -6 61 -6v-25h-252v25q50 0 62 5q9 4 13 12.5t4 56.5v289q0 55 -4 73q-2 13 -8 18t-15 5q-16 0 -52 -16zM207 -42l724 1113h69l-723 -1113h-70zM722 111v56l291 360h65v-354h84v-62h-84v-142h-90v142h-266zM786 173 h202v245z" />
<glyph unicode="&#xbd;" horiz-adv-x="1189" d="M104 1004l158 67h27v-458q0 -46 5 -57q4 -7 13 -11q12 -6 61 -6v-25h-252v25q50 0 62 5q9 4 13 12.5t4 56.5v289q0 55 -4 73q-2 13 -8 18t-15 5q-16 0 -52 -16zM189 -42l724 1113h68l-723 -1113h-69zM727 -8q191 149 254 243q38 57 38 110q0 47 -32 79.5t-81 32.5 q-44 0 -77 -23t-50 -69h-35q11 75 60 118.5t127 43.5q82 0 133.5 -45t51.5 -100q0 -52 -37 -110q-58 -90 -228 -228h144q67 0 89 9t38 34h34l-47 -118h-382v23z" />
<glyph unicode="&#xbe;" horiz-adv-x="1189" d="M33 551q0 13 12.5 24t32.5 11q22 0 63 -18.5t70 -18.5q44 0 75 30.5t31 71.5q0 56 -44 93t-136 35v22q60 0 100.5 36.5t40.5 83.5q0 38 -25.5 62t-68.5 24q-66 0 -114 -68l-29 12q28 58 63 84q49 36 115 36q71 0 112 -35.5t41 -78.5q0 -52 -81 -120q56 -20 84 -57.5 t28 -82.5q0 -80 -66 -137.5t-191 -57.5q-65 0 -93 19q-20 13 -20 30zM198 -42l724 1113h66l-720 -1113h-70zM722 111v56l291 360h65v-354h84v-62h-84v-142h-90v142h-266zM787 173h201v245z" />
<glyph unicode="&#xbf;" horiz-adv-x="704" d="M69 -97q0 64 22 118q34 76 116.5 171.5t106 148t27.5 144.5h31q-4 -96 -19.5 -152.5t-79 -191t-63.5 -223.5q0 -102 51 -158t131 -56q68 0 106.5 32t38.5 70q0 24 -24 65.5t-24 65.5q0 27 18.5 45t44.5 18q32 0 59 -32t27 -86q0 -89 -75.5 -156.5t-206.5 -67.5 q-132 0 -209.5 72.5t-77.5 172.5zM264 669q0 35 25 60.5t61 25.5q35 0 60.5 -25.5t25.5 -60.5q0 -36 -25.5 -61t-60.5 -25q-36 0 -61 25t-25 61z" />
<glyph unicode="&#xc0;" horiz-adv-x="1145" d="M12 0v29q66 11 86 30q39 37 87 151l369 864h27l366 -874q44 -105 80 -136t100 -35v-29h-414v29q63 3 85 20.5t22 43.5q0 34 -31 107l-64 151h-406l-71 -165q-27 -61 -27 -92q0 -24 23 -42t99 -23v-29h-331zM343 409h361l-178 424zM409 1404h173l82 -267h-27z" />
<glyph unicode="&#xc1;" horiz-adv-x="1145" d="M12 0v29q66 11 86 30q39 37 87 151l369 864h27l366 -874q44 -105 80 -136t100 -35v-29h-414v29q63 3 85 20.5t22 43.5q0 34 -31 107l-64 151h-406l-71 -165q-27 -61 -27 -92q0 -24 23 -42t99 -23v-29h-331zM343 409h361l-178 424zM500 1137l81 267h173l-228 -267h-26z " />
<glyph unicode="&#xc2;" horiz-adv-x="1145" d="M12 0v29q66 11 86 30q39 37 87 151l369 864h27l366 -874q44 -105 80 -136t100 -35v-29h-414v29q63 3 85 20.5t22 43.5q0 34 -31 107l-64 151h-406l-71 -165q-27 -61 -27 -92q0 -24 23 -42t99 -23v-29h-331zM343 409h361l-178 424zM363 1144l147 256h142l147 -256h-24 l-211 165l-177 -165h-24z" />
<glyph unicode="&#xc3;" horiz-adv-x="1145" d="M12 0v29q66 11 86 30q39 37 87 151l369 864h27l366 -874q44 -105 80 -136t100 -35v-29h-414v29q63 3 85 20.5t22 43.5q0 34 -31 107l-64 151h-406l-71 -165q-27 -61 -27 -92q0 -24 23 -42t99 -23v-29h-331zM335 1145q3 106 44 153.5t102 47.5q31 0 58 -11q34 -13 98 -55 t95 -42q25 0 44 21t30 87h24q0 -72 -19.5 -114.5t-55.5 -66t-72 -23.5q-62 0 -152 62q-49 33 -66 40t-33 7q-32 0 -51 -28q-8 -13 -21 -78h-25zM343 409h361l-178 424z" />
<glyph unicode="&#xc4;" horiz-adv-x="1145" d="M12 0v29q66 11 86 30q39 37 87 151l369 864h27l366 -874q44 -105 80 -136t100 -35v-29h-414v29q63 3 85 20.5t22 43.5q0 34 -31 107l-64 151h-406l-71 -165q-27 -61 -27 -92q0 -24 23 -42t99 -23v-29h-331zM343 409h361l-178 424zM360 1249q0 35 24.5 60t59.5 25 t59.5 -25t24.5 -60q0 -34 -24.5 -58.5t-59.5 -24.5q-34 0 -59 24.5t-25 58.5zM633 1249q0 35 24.5 60t59.5 25t59.5 -25t24.5 -60q0 -34 -24.5 -58.5t-59.5 -24.5t-59.5 24.5t-24.5 58.5z" />
<glyph unicode="&#xc5;" horiz-adv-x="1145" d="M12 0v29q66 11 86 30q39 37 87 151l369 864h27l366 -874q44 -105 80 -136t100 -35v-29h-414v29q63 3 85 20.5t22 43.5q0 34 -31 107l-64 151h-406l-71 -165q-27 -61 -27 -92q0 -24 23 -42t99 -23v-29h-331zM343 409h361l-178 424zM430 1177q0 61 43 104.5t105 43.5 t105.5 -43.5t43.5 -104.5q0 -62 -43.5 -105t-105.5 -43q-61 0 -104.5 43t-43.5 105zM484 1177q0 -38 27 -66t67 -28q39 0 66.5 28t27.5 66q0 40 -27.5 67.5t-66.5 27.5q-40 0 -67 -27.5t-27 -67.5z" />
<glyph unicode="&#xc6;" horiz-adv-x="1409" d="M-19 0v29q34 0 58.5 14t53.5 50.5t73 118.5l319 597q59 111 59 149q0 25 -21 39q-26 19 -113 24v29h860l12 -231h-27q-10 80 -38 121q-21 31 -61 45q-22 7 -105 7h-256v-415h199q89 0 125.5 33.5t42.5 119.5h28v-365h-28q-10 78 -25.5 104.5t-52.5 42.5q-18 9 -90 9h-199 v-348q0 -70 5.5 -83.5t22.5 -23t61 -9.5h141q84 0 129.5 14t88.5 54q57 53 93 139h29l-83 -264h-788v29h39q65 0 95 38q18 24 18 118v221h-306l-96 -180q-54 -102 -54 -134q0 -22 23.5 -40t97.5 -23v-29h-330zM370 463h276v529z" />
<glyph unicode="&#xc7;" horiz-adv-x="1057" d="M57 509q0 157 70.5 288.5t194 204t269.5 72.5q114 0 225 -56q32 -17 46 -17q21 0 37 14q20 21 28 59h27l24 -357h-24q-48 160 -137 230.5t-213 70.5q-105 0 -189.5 -53t-132.5 -169t-48 -289q0 -142 45.5 -246.5t137.5 -160.5t209 -56q102 0 180.5 44t171.5 174l24 -16 q-79 -140 -184 -205t-250 -65q-261 0 -404 194q-107 143 -107 339zM416 -263q21 -3 37 -3q39 0 66.5 26t27.5 59q0 23 -18 40t-44 17q-8 0 -20 -1l85 137h47l-39 -61q49 -12 73 -41.5t24 -71.5q0 -55 -46.5 -97.5t-120.5 -42.5q-28 0 -72 6v33z" />
<glyph unicode="&#xc8;" horiz-adv-x="968" d="M33 0v29h37q37 0 70 17q25 13 34 37.5t9 101.5v682q0 100 -20 123q-28 31 -93 31h-37v29h808l12 -230h-30q-16 82 -36 113t-59 48q-31 11 -109 11h-288v-415h231q90 0 120 27q40 36 45 126h28v-365h-28q-11 76 -22 98q-14 27 -45.5 42.5t-97.5 15.5h-231v-346 q0 -70 6.5 -85t22 -24t58.5 -9h178q89 0 129 12.5t78 48.5q48 48 98 145h31l-91 -263h-808zM323 1404h173l82 -267h-27z" />
<glyph unicode="&#xc9;" horiz-adv-x="968" d="M33 0v29h37q37 0 70 17q25 13 34 37.5t9 101.5v682q0 100 -20 123q-28 31 -93 31h-37v29h808l12 -230h-30q-16 82 -36 113t-59 48q-31 11 -109 11h-288v-415h231q90 0 120 27q40 36 45 126h28v-365h-28q-11 76 -22 98q-14 27 -45.5 42.5t-97.5 15.5h-231v-346 q0 -70 6.5 -85t22 -24t58.5 -9h178q89 0 129 12.5t78 48.5q48 48 98 145h31l-91 -263h-808zM415 1137l81 267h173l-228 -267h-26z" />
<glyph unicode="&#xca;" horiz-adv-x="968" d="M33 0v29h37q37 0 70 17q25 13 34 37.5t9 101.5v682q0 100 -20 123q-28 31 -93 31h-37v29h808l12 -230h-30q-16 82 -36 113t-59 48q-31 11 -109 11h-288v-415h231q90 0 120 27q40 36 45 126h28v-365h-28q-11 76 -22 98q-14 27 -45.5 42.5t-97.5 15.5h-231v-346 q0 -70 6.5 -85t22 -24t58.5 -9h178q89 0 129 12.5t78 48.5q48 48 98 145h31l-91 -263h-808zM278 1144l147 256h142l147 -256h-24l-211 165l-177 -165h-24z" />
<glyph unicode="&#xcb;" horiz-adv-x="968" d="M33 0v29h37q37 0 70 17q25 13 34 37.5t9 101.5v682q0 100 -20 123q-28 31 -93 31h-37v29h808l12 -230h-30q-16 82 -36 113t-59 48q-31 11 -109 11h-288v-415h231q90 0 120 27q40 36 45 126h28v-365h-28q-11 76 -22 98q-14 27 -45.5 42.5t-97.5 15.5h-231v-346 q0 -70 6.5 -85t22 -24t58.5 -9h178q89 0 129 12.5t78 48.5q48 48 98 145h31l-91 -263h-808zM275 1249q0 35 24.5 60t59.5 25t59.5 -25t24.5 -60q0 -34 -24.5 -58.5t-59.5 -24.5q-34 0 -59 24.5t-25 58.5zM548 1249q0 35 24.5 60t59.5 25t59.5 -25t24.5 -60 q0 -34 -24.5 -58.5t-59.5 -24.5t-59.5 24.5t-24.5 58.5z" />
<glyph unicode="&#xcc;" horiz-adv-x="528" d="M39 0v29h38q65 0 94 38q19 24 19 119v678q0 80 -10 105q-8 19 -32 33q-34 19 -71 19h-38v29h450v-29h-38q-64 0 -93 -38q-20 -25 -20 -119v-678q0 -80 10 -106q8 -19 33 -33q33 -18 70 -18h38v-29h-450zM92 1404h173l82 -267h-27z" />
<glyph unicode="&#xcd;" horiz-adv-x="528" d="M39 0v29h38q65 0 94 38q19 24 19 119v678q0 80 -10 105q-8 19 -32 33q-34 19 -71 19h-38v29h450v-29h-38q-64 0 -93 -38q-20 -25 -20 -119v-678q0 -80 10 -106q8 -19 33 -33q33 -18 70 -18h38v-29h-450zM183 1137l81 267h173l-228 -267h-26z" />
<glyph unicode="&#xce;" horiz-adv-x="528" d="M39 0v29h38q65 0 94 38q19 24 19 119v678q0 80 -10 105q-8 19 -32 33q-34 19 -71 19h-38v29h450v-29h-38q-64 0 -93 -38q-20 -25 -20 -119v-678q0 -80 10 -106q8 -19 33 -33q33 -18 70 -18h38v-29h-450zM46 1144l147 256h142l147 -256h-24l-211 165l-177 -165h-24z" />
<glyph unicode="&#xcf;" horiz-adv-x="528" d="M39 0v29h38q65 0 94 38q19 24 19 119v678q0 80 -10 105q-8 19 -32 33q-34 19 -71 19h-38v29h450v-29h-38q-64 0 -93 -38q-20 -25 -20 -119v-678q0 -80 10 -106q8 -19 33 -33q33 -18 70 -18h38v-29h-450zM44 1249q0 35 24.5 60t59.5 25t59.5 -25t24.5 -60 q0 -34 -24.5 -58.5t-59.5 -24.5q-34 0 -59 24.5t-25 58.5zM317 1249q0 35 24.5 60t59.5 25t59.5 -25t24.5 -60q0 -34 -24.5 -58.5t-59.5 -24.5t-59.5 24.5t-24.5 58.5z" />
<glyph unicode="&#xd0;" horiz-adv-x="1145" d="M27 0v29h40q66 0 95 43q16 25 16 114v339h-151v57h151v282q0 98 -22 123q-30 34 -89 34h-40v29h427q244 0 361 -55.5t193 -177.5t76 -285q0 -222 -142 -377t-447 -155h-468zM327 77q99 -21 165 -21q179 0 297.5 126t118.5 342q0 217 -118.5 342.5t-303.5 125.5 q-70 0 -159 -22v-388h305v-57h-305v-448z" />
<glyph unicode="&#xd1;" horiz-adv-x="1145" d="M-21 1021v29h285l642 -788v606q0 96 -22 120q-29 33 -91 33h-36v29h365v-29h-37q-66 0 -94 -40q-17 -25 -17 -113v-885h-28l-692 845v-646q0 -97 21 -121q29 -32 90 -32h37v-29h-365v29h37q67 0 95 40q17 25 17 113v730q-46 53 -69.5 70t-69.5 32q-22 7 -68 7zM334 1145 q3 106 44 153.5t102 47.5q31 0 58 -11q34 -13 98 -55t95 -42q25 0 44 21t30 87h24q0 -72 -19.5 -114.5t-55.5 -66t-72 -23.5q-62 0 -152 62q-49 33 -66 40t-33 7q-32 0 -51 -28q-8 -13 -21 -78h-25z" />
<glyph unicode="&#xd2;" horiz-adv-x="1145" d="M56 529q0 250 170 408q148 137 354 137q204 0 354 -155.5t150 -387.5q0 -239 -151 -397t-366 -158q-216 0 -363.5 154t-147.5 399zM233 532q0 -257 110 -396q84 -105 223 -105q148 0 244 115.5t96 363.5q0 269 -106 402q-85 105 -235 105q-141 0 -226 -104 q-106 -130 -106 -381zM407 1404h173l82 -267h-27z" />
<glyph unicode="&#xd3;" horiz-adv-x="1145" d="M56 529q0 250 170 408q148 137 354 137q204 0 354 -155.5t150 -387.5q0 -239 -151 -397t-366 -158q-216 0 -363.5 154t-147.5 399zM233 532q0 -257 110 -396q84 -105 223 -105q148 0 244 115.5t96 363.5q0 269 -106 402q-85 105 -235 105q-141 0 -226 -104 q-106 -130 -106 -381zM499 1137l81 267h173l-228 -267h-26z" />
<glyph unicode="&#xd4;" horiz-adv-x="1145" d="M56 529q0 250 170 408q148 137 354 137q204 0 354 -155.5t150 -387.5q0 -239 -151 -397t-366 -158q-216 0 -363.5 154t-147.5 399zM233 532q0 -257 110 -396q84 -105 223 -105q148 0 244 115.5t96 363.5q0 269 -106 402q-85 105 -235 105q-141 0 -226 -104 q-106 -130 -106 -381zM362 1144l147 256h142l147 -256h-24l-211 165l-177 -165h-24z" />
<glyph unicode="&#xd5;" horiz-adv-x="1145" d="M56 529q0 250 170 408q148 137 354 137q204 0 354 -155.5t150 -387.5q0 -239 -151 -397t-366 -158q-216 0 -363.5 154t-147.5 399zM233 532q0 -257 110 -396q84 -105 223 -105q148 0 244 115.5t96 363.5q0 269 -106 402q-85 105 -235 105q-141 0 -226 -104 q-106 -130 -106 -381zM333 1145q3 106 44 153.5t102 47.5q31 0 58 -11q34 -13 98 -55t95 -42q25 0 44 21t30 87h24q0 -72 -19.5 -114.5t-55.5 -66t-72 -23.5q-62 0 -152 62q-49 33 -66 40t-33 7q-32 0 -51 -28q-8 -13 -21 -78h-25z" />
<glyph unicode="&#xd6;" horiz-adv-x="1145" d="M56 529q0 250 170 408q148 137 354 137q204 0 354 -155.5t150 -387.5q0 -239 -151 -397t-366 -158q-216 0 -363.5 154t-147.5 399zM233 532q0 -257 110 -396q84 -105 223 -105q148 0 244 115.5t96 363.5q0 269 -106 402q-85 105 -235 105q-141 0 -226 -104 q-106 -130 -106 -381zM359 1249q0 35 24.5 60t59.5 25t59.5 -25t24.5 -60q0 -34 -24.5 -58.5t-59.5 -24.5q-34 0 -59 24.5t-25 58.5zM632 1249q0 35 24.5 60t59.5 25t59.5 -25t24.5 -60q0 -34 -24.5 -58.5t-59.5 -24.5t-59.5 24.5t-24.5 58.5z" />
<glyph unicode="&#xd7;" horiz-adv-x="894" d="M128 254l273 273l-273 273l45 44l273 -272l272 272l44 -44l-273 -272l274 -274l-44 -45l-274 274l-273 -273z" />
<glyph unicode="&#xd8;" horiz-adv-x="1145" d="M57 536q0 227 151.5 382.5t365.5 155.5q175 0 314 -116l101 126l45 -34l-103 -130q81 -87 117 -177t36 -211q0 -266 -188 -430q-146 -126 -320 -126q-80 0 -168 29t-153 82l-99 -123l-46 36l102 127q-155 160 -155 409zM234 539q0 -178 56 -315l533 654q-90 141 -253 141 q-72 0 -114 -17q-58 -24 -104 -75q-61 -68 -89.5 -166t-28.5 -222zM322 168q42 -64 90 -93q69 -43 153 -43q81 0 133 24t97.5 75.5t78 144t32.5 232.5q0 95 -14 176q-11 60 -40 139z" />
<glyph unicode="&#xd9;" horiz-adv-x="1145" d="M9 1021v29h453v-29h-40q-65 0 -93 -41q-19 -28 -19 -116v-458q0 -61 11 -140t40.5 -123t85 -72.5t135.5 -28.5q103 0 184.5 45t111 115t29.5 237v425q0 98 -22 123q-30 34 -89 34h-40v29h372v-29h-40q-62 0 -95 -52q-16 -24 -16 -111v-426q0 -158 -31.5 -245t-123 -149.5 t-249.5 -62.5q-172 0 -261 59.5t-126 160.5q-25 69 -25 259v410q0 97 -26.5 127t-86.5 30h-39zM448 1404h173l82 -267h-27z" />
<glyph unicode="&#xda;" horiz-adv-x="1145" d="M9 1021v29h453v-29h-40q-65 0 -93 -41q-19 -28 -19 -116v-458q0 -61 11 -140t40.5 -123t85 -72.5t135.5 -28.5q103 0 184.5 45t111 115t29.5 237v425q0 98 -22 123q-30 34 -89 34h-40v29h372v-29h-40q-62 0 -95 -52q-16 -24 -16 -111v-426q0 -158 -31.5 -245t-123 -149.5 t-249.5 -62.5q-172 0 -261 59.5t-126 160.5q-25 69 -25 259v410q0 97 -26.5 127t-86.5 30h-39zM501 1137l81 267h173l-228 -267h-26z" />
<glyph unicode="&#xdb;" horiz-adv-x="1145" d="M9 1021v29h453v-29h-40q-65 0 -93 -41q-19 -28 -19 -116v-458q0 -61 11 -140t40.5 -123t85 -72.5t135.5 -28.5q103 0 184.5 45t111 115t29.5 237v425q0 98 -22 123q-30 34 -89 34h-40v29h372v-29h-40q-62 0 -95 -52q-16 -24 -16 -111v-426q0 -158 -31.5 -245t-123 -149.5 t-249.5 -62.5q-172 0 -261 59.5t-126 160.5q-25 69 -25 259v410q0 97 -26.5 127t-86.5 30h-39zM402 1144l147 256h142l147 -256h-24l-211 165l-177 -165h-24z" />
<glyph unicode="&#xdc;" horiz-adv-x="1145" d="M9 1021v29h453v-29h-40q-65 0 -93 -41q-19 -28 -19 -116v-458q0 -61 11 -140t40.5 -123t85 -72.5t135.5 -28.5q103 0 184.5 45t111 115t29.5 237v425q0 98 -22 123q-30 34 -89 34h-40v29h372v-29h-40q-62 0 -95 -52q-16 -24 -16 -111v-426q0 -158 -31.5 -245t-123 -149.5 t-249.5 -62.5q-172 0 -261 59.5t-126 160.5q-25 69 -25 259v410q0 97 -26.5 127t-86.5 30h-39zM400 1249q0 35 24.5 60t59.5 25t59.5 -25t24.5 -60q0 -34 -24.5 -58.5t-59.5 -24.5q-34 0 -59 24.5t-25 58.5zM673 1249q0 35 24.5 60t59.5 25t59.5 -25t24.5 -60 q0 -34 -24.5 -58.5t-59.5 -24.5t-59.5 24.5t-24.5 58.5z" />
<glyph unicode="&#xdd;" horiz-adv-x="1145" d="M15 1021v29h449v-29h-24q-36 0 -66.5 -17t-30.5 -51q0 -28 47 -101l219 -338l206 323q46 73 46 109q0 22 -11 39t-32 26.5t-63 9.5v29h367v-29h-21q-20 0 -58.5 -18t-70.5 -51t-78 -108l-253 -399v-263q0 -97 22 -121q29 -32 92 -32h34v-29h-445v29h37q66 0 94 40 q17 25 17 113v248l-288 440q-51 77 -69 96.5t-75 46.5q-16 8 -45 8zM530 1137l81 267h173l-228 -267h-26z" />
<glyph unicode="&#xde;" horiz-adv-x="882" d="M28 0v29h29q72 0 103 43q16 22 16 114v672q0 88 -8.5 108.5t-37.5 37.5t-71 17h-31v29h447v-29h-31q-34 0 -72 -18q-24 -11 -35.5 -38t-11.5 -104v-50h57q116 0 174 -9q83 -15 138.5 -50t90.5 -94t35 -132q0 -59 -22 -110t-60 -87t-86 -58t-125 -32q-28 -4 -148 -4h-54 v-47q0 -100 26.5 -129.5t92.5 -29.5h31v-29h-447zM325 290h34q95 0 147 22q70 29 103 84t33 128q0 58 -24 107t-63 76.5t-87 37.5q-31 6 -106 6h-37v-461z" />
<glyph unicode="&#xdf;" d="M27 0v28q47 4 66.5 16.5t27.5 34.5t8 95v574q0 192 72 273q72 80 205 80q125 0 198.5 -71t73.5 -181q0 -82 -42 -139q-31 -42 -106 -75q105 -31 158 -107.5t53 -200.5q0 -135 -70 -236t-189 -101q-67 0 -107.5 37t-40.5 88q0 33 16.5 50.5t44.5 17.5q30 0 46.5 -17 t16.5 -44q0 -13 -3 -26q-5 -19 -5 -27q0 -14 12 -25t32 -11q46 0 76 41q40 54 40 167q0 161 -57 255.5t-171 102.5v44q82 0 124 48.5t42 161.5q0 104 -40.5 150.5t-108.5 46.5q-62 0 -101.5 -50t-39.5 -197v-803h-231z" />
<glyph unicode="&#xe0;" horiz-adv-x="704" d="M57 168q0 52 23 90q31 52 110 98.5t261 113.5v28q0 106 -33.5 145.5t-97.5 39.5q-49 0 -78 -27q-29 -26 -29 -60l1 -45q0 -36 -18 -55t-47 -19t-47 20t-18 55q0 66 68 122t191 56q94 0 155 -32q45 -24 67 -75q14 -33 14 -136v-241q0 -101 4 -124t12.5 -30.5t20.5 -7.5 t22 5q16 10 62 57v-44q-86 -116 -165 -116q-38 0 -60.5 26.5t-23.5 89.5q-109 -84 -137 -97q-42 -20 -89 -20q-73 0 -120.5 50.5t-47.5 132.5zM187 204q0 -55 33 -92t76 -37q59 0 155 77v271q-117 -47 -151 -66q-61 -34 -87 -71.5t-26 -81.5zM205 1076h173l82 -267h-27z" />
<glyph unicode="&#xe1;" horiz-adv-x="704" d="M57 168q0 52 23 90q31 52 110 98.5t261 113.5v28q0 106 -33.5 145.5t-97.5 39.5q-49 0 -78 -27q-29 -26 -29 -60l1 -45q0 -36 -18 -55t-47 -19t-47 20t-18 55q0 66 68 122t191 56q94 0 155 -32q45 -24 67 -75q14 -33 14 -136v-241q0 -101 4 -124t12.5 -30.5t20.5 -7.5 t22 5q16 10 62 57v-44q-86 -116 -165 -116q-38 0 -60.5 26.5t-23.5 89.5q-109 -84 -137 -97q-42 -20 -89 -20q-73 0 -120.5 50.5t-47.5 132.5zM187 204q0 -55 33 -92t76 -37q59 0 155 77v271q-117 -47 -151 -66q-61 -34 -87 -71.5t-26 -81.5zM277 809l81 267h173l-228 -267 h-26z" />
<glyph unicode="&#xe2;" horiz-adv-x="704" d="M57 168q0 52 23 90q31 52 110 98.5t261 113.5v28q0 106 -33.5 145.5t-97.5 39.5q-49 0 -78 -27q-29 -26 -29 -60l1 -45q0 -36 -18 -55t-47 -19t-47 20t-18 55q0 66 68 122t191 56q94 0 155 -32q45 -24 67 -75q14 -33 14 -136v-241q0 -101 4 -124t12.5 -30.5t20.5 -7.5 t22 5q16 10 62 57v-44q-86 -116 -165 -116q-38 0 -60.5 26.5t-23.5 89.5q-109 -84 -137 -97q-42 -20 -89 -20q-73 0 -120.5 50.5t-47.5 132.5zM140 816l147 256h142l147 -256h-24l-211 165l-177 -165h-24zM187 204q0 -55 33 -92t76 -37q59 0 155 77v271q-117 -47 -151 -66 q-61 -34 -87 -71.5t-26 -81.5z" />
<glyph unicode="&#xe3;" horiz-adv-x="704" d="M57 168q0 52 23 90q31 52 110 98.5t261 113.5v28q0 106 -33.5 145.5t-97.5 39.5q-49 0 -78 -27q-29 -26 -29 -60l1 -45q0 -36 -18 -55t-47 -19t-47 20t-18 55q0 66 68 122t191 56q94 0 155 -32q45 -24 67 -75q14 -33 14 -136v-241q0 -101 4 -124t12.5 -30.5t20.5 -7.5 t22 5q16 10 62 57v-44q-86 -116 -165 -116q-38 0 -60.5 26.5t-23.5 89.5q-109 -84 -137 -97q-42 -20 -89 -20q-73 0 -120.5 50.5t-47.5 132.5zM111 849q3 106 44 153.5t102 47.5q31 0 58 -11q34 -13 98 -55t95 -42q25 0 44 21t30 87h24q0 -72 -19.5 -114.5t-55.5 -66 t-72 -23.5q-62 0 -152 62q-49 33 -66 40t-33 7q-32 0 -51 -28q-8 -13 -21 -78h-25zM187 204q0 -55 33 -92t76 -37q59 0 155 77v271q-117 -47 -151 -66q-61 -34 -87 -71.5t-26 -81.5z" />
<glyph unicode="&#xe4;" horiz-adv-x="704" d="M57 168q0 52 23 90q31 52 110 98.5t261 113.5v28q0 106 -33.5 145.5t-97.5 39.5q-49 0 -78 -27q-29 -26 -29 -60l1 -45q0 -36 -18 -55t-47 -19t-47 20t-18 55q0 66 68 122t191 56q94 0 155 -32q45 -24 67 -75q14 -33 14 -136v-241q0 -101 4 -124t12.5 -30.5t20.5 -7.5 t22 5q16 10 62 57v-44q-86 -116 -165 -116q-38 0 -60.5 26.5t-23.5 89.5q-109 -84 -137 -97q-42 -20 -89 -20q-73 0 -120.5 50.5t-47.5 132.5zM137 950q0 35 24.5 60t59.5 25t59.5 -25t24.5 -60q0 -34 -24.5 -58.5t-59.5 -24.5q-34 0 -59 24.5t-25 58.5zM187 204 q0 -55 33 -92t76 -37q59 0 155 77v271q-117 -47 -151 -66q-61 -34 -87 -71.5t-26 -81.5zM410 950q0 35 24.5 60t59.5 25t59.5 -25t24.5 -60q0 -34 -24.5 -58.5t-59.5 -24.5t-59.5 24.5t-24.5 58.5z" />
<glyph unicode="&#xe5;" horiz-adv-x="704" d="M57 168q0 52 23 90q31 52 110 98.5t261 113.5v28q0 106 -33.5 145.5t-97.5 39.5q-49 0 -78 -27q-29 -26 -29 -60l1 -45q0 -36 -18 -55t-47 -19t-47 20t-18 55q0 66 68 122t191 56q94 0 155 -32q45 -24 67 -75q14 -33 14 -136v-241q0 -101 4 -124t12.5 -30.5t20.5 -7.5 t22 5q16 10 62 57v-44q-86 -116 -165 -116q-38 0 -60.5 26.5t-23.5 89.5q-109 -84 -137 -97q-42 -20 -89 -20q-73 0 -120.5 50.5t-47.5 132.5zM187 204q0 -55 33 -92t76 -37q59 0 155 77v271q-117 -47 -151 -66q-61 -34 -87 -71.5t-26 -81.5zM210 956q0 61 43 104.5 t105 43.5t105.5 -43.5t43.5 -104.5q0 -62 -43.5 -105t-105.5 -43q-61 0 -104.5 43t-43.5 105zM264 956q0 -38 27 -66t67 -28q39 0 66.5 28t27.5 66q0 40 -27.5 67.5t-66.5 27.5q-40 0 -67 -27.5t-27 -67.5z" />
<glyph unicode="&#xe6;" horiz-adv-x="1057" d="M57 156q0 67 33.5 114t131.5 98q121 62 214 94v71q0 84 -31 118.5t-83 34.5q-51 0 -80 -25q-29 -26 -29 -57q0 -65 -6.5 -84t-20.5 -29t-35 -10q-30 0 -47 17q-23 25 -23 56q0 40 28.5 80.5t89 68.5t142.5 28q96 0 144.5 -27.5t64.5 -68.5q37 47 78 68q55 28 130 28 q111 0 181 -75t70 -217h-441q-1 -40 -1 -57q0 -156 56 -222t142 -66q76 0 137 48q38 30 83 123l24 -17q-28 -126 -120 -209q-66 -61 -166 -61q-84 0 -143 37q-28 18 -86 87q-9 -7 -43 -33q-45 -36 -60 -45q-37 -21 -78 -33.5t-84 -12.5q-73 0 -122.5 51.5t-49.5 126.5z M187 200q0 -61 36.5 -100t87.5 -39q30 0 64 16t97 65q-16 35 -26 91t-10 110v69q-105 -33 -192 -99q-57 -44 -57 -113zM568 489h293q-2 98 -42 142.5t-102 44.5q-61 0 -104 -48.5t-45 -138.5z" />
<glyph unicode="&#xe7;" horiz-adv-x="704" d="M54 354q0 167 99.5 271.5t238.5 104.5q105 0 172.5 -55.5t67.5 -114.5q0 -30 -19 -48t-53 -18q-46 0 -69 29q-13 16 -17.5 62t-31.5 70q-27 23 -75 23q-78 0 -125 -57q-62 -76 -62 -201q0 -127 62 -224t168 -97q76 0 136 52q43 36 83 129l23 -11q-29 -140 -112.5 -215.5 t-185.5 -75.5q-120 0 -210 101.5t-90 274.5zM233 -263q21 -3 37 -3q39 0 66.5 26t27.5 59q0 23 -18 40t-44 17q-8 0 -20 -1l85 137h47l-39 -61q49 -12 73 -41.5t24 -71.5q0 -55 -46.5 -97.5t-120.5 -42.5q-28 0 -72 6v33z" />
<glyph unicode="&#xe8;" horiz-adv-x="704" d="M59 345q0 182 93 284t234 102q119 0 196 -78.5t77 -210.5h-490q-1 -158 76 -248q78 -90 182 -90q70 0 121.5 38.5t86.5 131.5l24 -15q-17 -107 -95 -194t-196 -87q-127 0 -218 99.5t-91 267.5zM169 487h328q-4 68 -16 96q-20 43 -58 68t-80 25q-64 0 -115 -50t-59 -139z M225 1076h173l82 -267h-27z" />
<glyph unicode="&#xe9;" horiz-adv-x="704" d="M59 345q0 182 93 284t234 102q119 0 196 -78.5t77 -210.5h-490q-1 -158 76 -248q78 -90 182 -90q70 0 121.5 38.5t86.5 131.5l24 -15q-17 -107 -95 -194t-196 -87q-127 0 -218 99.5t-91 267.5zM169 487h328q-4 68 -16 96q-20 43 -58 68t-80 25q-64 0 -115 -50t-59 -139z M288 809l81 267h173l-228 -267h-26z" />
<glyph unicode="&#xea;" horiz-adv-x="704" d="M59 345q0 182 93 284t234 102q119 0 196 -78.5t77 -210.5h-490q-1 -158 76 -248q78 -90 182 -90q70 0 121.5 38.5t86.5 131.5l24 -15q-17 -107 -95 -194t-196 -87q-127 0 -218 99.5t-91 267.5zM169 487h328q-4 68 -16 96q-20 43 -58 68t-80 25q-64 0 -115 -50t-59 -139z M170 816l147 256h142l147 -256h-24l-211 165l-177 -165h-24z" />
<glyph unicode="&#xeb;" horiz-adv-x="704" d="M59 345q0 182 93 284t234 102q119 0 196 -78.5t77 -210.5h-490q-1 -158 76 -248q78 -90 182 -90q70 0 121.5 38.5t86.5 131.5l24 -15q-17 -107 -95 -194t-196 -87q-127 0 -218 99.5t-91 267.5zM167 950q0 35 24.5 60t59.5 25t59.5 -25t24.5 -60q0 -34 -24.5 -58.5 t-59.5 -24.5q-34 0 -59 24.5t-25 58.5zM169 487h328q-4 68 -16 96q-20 43 -58 68t-80 25q-64 0 -115 -50t-59 -139zM440 950q0 35 24.5 60t59.5 25t59.5 -25t24.5 -60q0 -34 -24.5 -58.5t-59.5 -24.5t-59.5 24.5t-24.5 58.5z" />
<glyph unicode="&#xec;" horiz-adv-x="440" d="M46 643l214 87h33v-570q0 -66 10 -88t29 -33t70 -11v-28h-345v28q52 0 70 10t28.5 33t10.5 89v273q0 116 -7 150q-6 25 -17.5 34.5t-31.5 9.5q-22 0 -53 -12zM59 1076h173l82 -267h-27z" />
<glyph unicode="&#xed;" horiz-adv-x="440" d="M46 643l214 87h33v-570q0 -66 10 -88t29 -33t70 -11v-28h-345v28q52 0 70 10t28.5 33t10.5 89v273q0 116 -7 150q-6 25 -17.5 34.5t-31.5 9.5q-22 0 -53 -12zM130 809l81 267h173l-228 -267h-26z" />
<glyph unicode="&#xee;" horiz-adv-x="440" d="M9 816l147 256h142l147 -256h-24l-211 165l-177 -165h-24zM46 643l214 87h33v-570q0 -66 10 -88t29 -33t70 -11v-28h-345v28q52 0 70 10t28.5 33t10.5 89v273q0 116 -7 150q-6 25 -17.5 34.5t-31.5 9.5q-22 0 -53 -12z" />
<glyph unicode="&#xef;" horiz-adv-x="440" d="M1 950q0 35 24.5 60t59.5 25t59.5 -25t24.5 -60q0 -34 -24.5 -58.5t-59.5 -24.5q-34 0 -59 24.5t-25 58.5zM46 643l214 87h33v-570q0 -66 10 -88t29 -33t70 -11v-28h-345v28q52 0 70 10t28.5 33t10.5 89v273q0 116 -7 150q-6 25 -17.5 34.5t-31.5 9.5q-22 0 -53 -12z M274 950q0 35 24.5 60t59.5 25t59.5 -25t24.5 -60q0 -34 -24.5 -58.5t-59.5 -24.5t-59.5 24.5t-24.5 58.5z" />
<glyph unicode="&#xf0;" d="M53 341q0 164 106 283q92 100 219 100q38 0 68 -10q24 -8 63 -36q-62 128 -146 227l-191 -105l-23 43l180 102q-51 52 -77 73t-69 49l21 34q93 -47 192 -120l192 107l27 -42l-178 -101q147 -128 222.5 -281.5t75.5 -296.5q0 -108 -44.5 -198t-125 -140.5t-179.5 -50.5 q-138 0 -235.5 103.5t-97.5 259.5zM196 401q0 -105 31.5 -194t84.5 -131.5t111 -42.5q71 0 119.5 61t48.5 198q0 174 -61 279t-159 105q-75 0 -125 -62.5t-50 -212.5z" />
<glyph unicode="&#xf1;" d="M9 643l214 87h33v-150q125 150 238 150q58 0 99.5 -29t66.5 -96q17 -46 17 -142v-303q0 -67 11 -91q9 -19 28 -30t70 -11v-28h-351v28h15q49 0 69 15t27 44q4 12 4 73v290q0 97 -25.5 141t-84.5 44q-92 0 -184 -101v-374q0 -72 9 -89q11 -22 29.5 -32.5t77.5 -10.5v-28 h-351v28h15q55 0 73.5 27.5t18.5 104.5v263q0 128 -5.5 156t-17.5 38t-32 10q-22 0 -52 -12zM155 849q3 106 44 153.5t102 47.5q31 0 58 -11q34 -13 98 -55t95 -42q25 0 44 21t30 87h24q0 -72 -19.5 -114.5t-55.5 -66t-72 -23.5q-62 0 -152 62q-49 33 -66 40t-33 7 q-32 0 -51 -28q-8 -13 -21 -78h-25z" />
<glyph unicode="&#xf2;" d="M53 348q0 97 48.5 193.5t127.5 142.5t167 46q161 0 259 -122q83 -105 83 -240q0 -96 -46 -193.5t-126 -147t-178 -49.5q-160 0 -255 128q-80 108 -80 242zM197 413q0 -155 61.5 -267.5t162.5 -112.5q75 0 124 62t49 213q0 189 -82 297q-55 75 -140 75q-41 0 -82.5 -24.5 t-67 -85.5t-25.5 -157zM238 1076h173l82 -267h-27z" />
<glyph unicode="&#xf3;" d="M53 348q0 97 48.5 193.5t127.5 142.5t167 46q161 0 259 -122q83 -105 83 -240q0 -96 -46 -193.5t-126 -147t-178 -49.5q-160 0 -255 128q-80 108 -80 242zM197 413q0 -155 61.5 -267.5t162.5 -112.5q75 0 124 62t49 213q0 189 -82 297q-55 75 -140 75q-41 0 -82.5 -24.5 t-67 -85.5t-25.5 -157zM310 809l81 267h173l-228 -267h-26z" />
<glyph unicode="&#xf4;" d="M53 348q0 97 48.5 193.5t127.5 142.5t167 46q161 0 259 -122q83 -105 83 -240q0 -96 -46 -193.5t-126 -147t-178 -49.5q-160 0 -255 128q-80 108 -80 242zM193 816l147 256h142l147 -256h-24l-211 165l-177 -165h-24zM197 413q0 -155 61.5 -267.5t162.5 -112.5 q75 0 124 62t49 213q0 189 -82 297q-55 75 -140 75q-41 0 -82.5 -24.5t-67 -85.5t-25.5 -157z" />
<glyph unicode="&#xf5;" d="M53 348q0 97 48.5 193.5t127.5 142.5t167 46q161 0 259 -122q83 -105 83 -240q0 -96 -46 -193.5t-126 -147t-178 -49.5q-160 0 -255 128q-80 108 -80 242zM154 849q3 106 44 153.5t102 47.5q31 0 58 -11q34 -13 98 -55t95 -42q25 0 44 21t30 87h24q0 -72 -19.5 -114.5 t-55.5 -66t-72 -23.5q-62 0 -152 62q-49 33 -66 40t-33 7q-32 0 -51 -28q-8 -13 -21 -78h-25zM197 413q0 -155 61.5 -267.5t162.5 -112.5q75 0 124 62t49 213q0 189 -82 297q-55 75 -140 75q-41 0 -82.5 -24.5t-67 -85.5t-25.5 -157z" />
<glyph unicode="&#xf6;" d="M53 348q0 97 48.5 193.5t127.5 142.5t167 46q161 0 259 -122q83 -105 83 -240q0 -96 -46 -193.5t-126 -147t-178 -49.5q-160 0 -255 128q-80 108 -80 242zM180 950q0 35 24.5 60t59.5 25t59.5 -25t24.5 -60q0 -34 -24.5 -58.5t-59.5 -24.5q-34 0 -59 24.5t-25 58.5z M197 413q0 -155 61.5 -267.5t162.5 -112.5q75 0 124 62t49 213q0 189 -82 297q-55 75 -140 75q-41 0 -82.5 -24.5t-67 -85.5t-25.5 -157zM453 950q0 35 24.5 60t59.5 25t59.5 -25t24.5 -60q0 -34 -24.5 -58.5t-59.5 -24.5t-59.5 24.5t-24.5 58.5z" />
<glyph unicode="&#xf7;" horiz-adv-x="870" d="M18 495v64h834v-64h-834zM367 284q0 28 19.5 48t48.5 20t48.5 -20t19.5 -48t-20 -48t-48 -20t-48 20t-20 48zM367 765q0 28 19.5 47.5t48.5 19.5q28 0 47.5 -19.5t19.5 -47.5t-19.5 -48t-48.5 -20q-28 0 -47.5 20t-19.5 48z" />
<glyph unicode="&#xf8;" d="M30 -19l109 123q-38 48 -60 118t-22 130q0 92 47 186t126 143t173 49q64 0 115.5 -20t105.5 -66l103 114l35 -34l-104 -117q82 -105 82 -242q0 -91 -45 -189t-124.5 -148t-178.5 -50q-64 0 -113.5 20t-107.5 69l-104 -119zM201 412q0 -96 30 -203l314 348q-40 68 -78 95 t-89 27q-76 0 -126.5 -62t-50.5 -205zM255 158q39 -71 77 -98t91 -27q77 0 125.5 62t48.5 216q0 94 -30 195z" />
<glyph unicode="&#xf9;" d="M2 680v29h248v-474q0 -100 34.5 -130.5t83.5 -30.5q33 0 75 20.5t100 79.5v402q0 60 -22 81.5t-91 22.5v29h241v-430q0 -123 6 -150.5t18.5 -38t29.5 -10.5q24 0 54 13l11 -27l-212 -88h-35v150q-91 -99 -139 -124.5t-101 -25.5q-60 0 -103.5 34.5t-60.5 89t-17 153.5 v316q0 51 -11 70t-32.5 29.5t-76.5 9.5zM243 1076h173l82 -267h-27z" />
<glyph unicode="&#xfa;" d="M2 680v29h248v-474q0 -100 34.5 -130.5t83.5 -30.5q33 0 75 20.5t100 79.5v402q0 60 -22 81.5t-91 22.5v29h241v-430q0 -123 6 -150.5t18.5 -38t29.5 -10.5q24 0 54 13l11 -27l-212 -88h-35v150q-91 -99 -139 -124.5t-101 -25.5q-60 0 -103.5 34.5t-60.5 89t-17 153.5 v316q0 51 -11 70t-32.5 29.5t-76.5 9.5zM291 809l81 267h173l-228 -267h-26z" />
<glyph unicode="&#xfb;" d="M2 680v29h248v-474q0 -100 34.5 -130.5t83.5 -30.5q33 0 75 20.5t100 79.5v402q0 60 -22 81.5t-91 22.5v29h241v-430q0 -123 6 -150.5t18.5 -38t29.5 -10.5q24 0 54 13l11 -27l-212 -88h-35v150q-91 -99 -139 -124.5t-101 -25.5q-60 0 -103.5 34.5t-60.5 89t-17 153.5 v316q0 51 -11 70t-32.5 29.5t-76.5 9.5zM186 816l147 256h142l147 -256h-24l-211 165l-177 -165h-24z" />
<glyph unicode="&#xfc;" d="M2 680v29h248v-474q0 -100 34.5 -130.5t83.5 -30.5q33 0 75 20.5t100 79.5v402q0 60 -22 81.5t-91 22.5v29h241v-430q0 -123 6 -150.5t18.5 -38t29.5 -10.5q24 0 54 13l11 -27l-212 -88h-35v150q-91 -99 -139 -124.5t-101 -25.5q-60 0 -103.5 34.5t-60.5 89t-17 153.5 v316q0 51 -11 70t-32.5 29.5t-76.5 9.5zM180 950q0 35 24.5 60t59.5 25t59.5 -25t24.5 -60q0 -34 -24.5 -58.5t-59.5 -24.5q-34 0 -59 24.5t-25 58.5zM453 950q0 35 24.5 60t59.5 25t59.5 -25t24.5 -60q0 -34 -24.5 -58.5t-59.5 -24.5t-59.5 24.5t-24.5 58.5z" />
<glyph unicode="&#xfd;" d="M9 680v29h331v-29h-16q-35 0 -52.5 -15t-17.5 -37q0 -30 25 -84l173 -357l159 391q13 32 13 63q0 14 -6 21q-6 8 -19 13t-46 5v29h230v-29q-28 -3 -43.5 -12t-34.5 -35q-7 -11 -26 -59l-289 -708q-42 -103 -109.5 -155.5t-130.5 -52.5q-46 0 -75 26.5t-29 60.5 q0 32 21 52t58 20q26 0 70 -17q31 -12 39 -12q23 0 50.5 24t55.5 93l50 123l-255 535q-11 24 -37 59q-19 27 -31 37q-18 12 -58 21zM317 809l81 267h173l-228 -267h-26z" />
<glyph unicode="&#xfe;" d="M-5 -309l19 -1q43 0 73 17q14 8 22.5 27t8.5 96v1044q0 69 -6.5 88t-20 28t-36.5 9q-19 0 -47 -11l-10 24l219 89h29v-540q55 94 110.5 131.5t116.5 37.5q107 0 178 -84q87 -102 87 -266q0 -183 -105 -303q-87 -99 -218 -99q-57 0 -99 17q-31 11 -70 46v-216 q0 -72 9 -91.5t31 -31t80 -11.5v-29h-371v29zM246 251q0 -86 7 -113q11 -45 53 -79t107 -34q77 0 125 60q63 79 63 222q0 163 -72 250q-49 61 -117 61q-37 0 -74 -19q-28 -14 -92 -84v-264z" />
<glyph unicode="&#xff;" d="M9 680v29h331v-29h-16q-35 0 -52.5 -15t-17.5 -37q0 -30 25 -84l173 -357l159 391q13 32 13 63q0 14 -6 21q-6 8 -19 13t-46 5v29h230v-29q-28 -3 -43.5 -12t-34.5 -35q-7 -11 -26 -59l-289 -708q-42 -103 -109.5 -155.5t-130.5 -52.5q-46 0 -75 26.5t-29 60.5 q0 32 21 52t58 20q26 0 70 -17q31 -12 39 -12q23 0 50.5 24t55.5 93l50 123l-255 535q-11 24 -37 59q-19 27 -31 37q-18 12 -58 21zM211 950q0 35 24.5 60t59.5 25t59.5 -25t24.5 -60q0 -34 -24.5 -58.5t-59.5 -24.5q-34 0 -59 24.5t-25 58.5zM484 950q0 35 24.5 60t59.5 25 t59.5 -25t24.5 -60q0 -34 -24.5 -58.5t-59.5 -24.5t-59.5 24.5t-24.5 58.5z" />
<glyph unicode="&#x152;" horiz-adv-x="1409" d="M58 523q0 200 109 352q131 184 382 184q18 0 150 -6q108 -3 207 -3h366l9 -231h-25q-18 91 -33 115q-19 31 -60 48q-25 10 -110 10h-199v-414h142q89 0 126 37t37 115h30v-365h-30q-7 95 -39.5 125.5t-123.5 30.5h-142v-347q0 -62 8 -80.5t26 -28.5q11 -6 59 -6h81 q93 0 129.5 10t76.5 46q58 52 100 148h31l-84 -263h-375q-110 0 -133 -1q-9 0 -129 -7q-84 -4 -112 -4q-131 0 -239 66t-171.5 193.5t-63.5 275.5zM236 517q0 -120 32.5 -233t105 -177t175.5 -64q59 0 94.5 19.5t49 55t13.5 145.5v544q0 100 -14.5 132t-41.5 48 q-39 22 -98 22q-96 0 -169 -56.5t-110 -173t-37 -262.5z" />
<glyph unicode="&#x153;" horiz-adv-x="1145" d="M52 343q0 177 95.5 282t231.5 105q83 0 144 -34t98 -88q45 65 95.5 94t123.5 29q114 0 185 -77q67 -76 67 -210h-424q-2 -20 -2 -30q0 -73 26 -152t77 -117.5t113 -38.5t109.5 39.5t75.5 129.5l25 -13q-28 -150 -97 -217t-166 -67q-75 0 -128 36.5t-80 88.5 q-48 -62 -109.5 -93.5t-136.5 -31.5q-137 0 -230 99.5t-93 265.5zM197 417q0 -200 79 -314q48 -70 118 -70q69 0 114 57.5t45 202.5q0 180 -52 287t-150 107q-28 0 -66.5 -20.5t-59.5 -69.5q-28 -64 -28 -180zM668 494h272q0 54 -19 104q-14 37 -47 59t-70 22 q-52 0 -91.5 -46.5t-44.5 -138.5z" />
<glyph unicode="&#x178;" horiz-adv-x="1145" d="M15 1021v29h449v-29h-24q-36 0 -66.5 -17t-30.5 -51q0 -28 47 -101l219 -338l206 323q46 73 46 109q0 22 -11 39t-32 26.5t-63 9.5v29h367v-29h-21q-20 0 -58.5 -18t-70.5 -51t-78 -108l-253 -399v-263q0 -97 22 -121q29 -32 92 -32h34v-29h-445v29h37q66 0 94 40 q17 25 17 113v248l-288 440q-51 77 -69 96.5t-75 46.5q-16 8 -45 8zM380 1249q0 35 24.5 60t59.5 25t59.5 -25t24.5 -60q0 -34 -24.5 -58.5t-59.5 -24.5q-34 0 -59 24.5t-25 58.5zM653 1249q0 35 24.5 60t59.5 25t59.5 -25t24.5 -60q0 -34 -24.5 -58.5t-59.5 -24.5 t-59.5 24.5t-24.5 58.5z" />
<glyph unicode="&#x2c6;" horiz-adv-x="528" d="M46 816l147 256h142l147 -256h-24l-211 165l-177 -165h-24z" />
<glyph unicode="&#x2dc;" horiz-adv-x="528" d="M17 849q3 106 44 153.5t102 47.5q31 0 58 -11q34 -13 98 -55t95 -42q25 0 44 21t30 87h24q0 -72 -19.5 -114.5t-55.5 -66t-72 -23.5q-62 0 -152 62q-49 33 -66 40t-33 7q-32 0 -51 -28q-8 -13 -21 -78h-25z" />
<glyph unicode="&#x2000;" horiz-adv-x="702" />
<glyph unicode="&#x2001;" horiz-adv-x="1404" />
<glyph unicode="&#x2002;" horiz-adv-x="702" />
<glyph unicode="&#x2003;" horiz-adv-x="1404" />
<glyph unicode="&#x2004;" horiz-adv-x="468" />
<glyph unicode="&#x2005;" horiz-adv-x="351" />
<glyph unicode="&#x2006;" horiz-adv-x="234" />
<glyph unicode="&#x2007;" horiz-adv-x="234" />
<glyph unicode="&#x2008;" horiz-adv-x="175" />
<glyph unicode="&#x2009;" horiz-adv-x="280" />
<glyph unicode="&#x200a;" horiz-adv-x="78" />
<glyph unicode="&#x2010;" horiz-adv-x="528" d="M64 297v117h400v-117h-400z" />
<glyph unicode="&#x2011;" horiz-adv-x="528" d="M64 297v117h400v-117h-400z" />
<glyph unicode="&#x2012;" horiz-adv-x="528" d="M64 297v117h400v-117h-400z" />
<glyph unicode="&#x2013;" d="M-14 351v56h820v-56h-820z" />
<glyph unicode="&#x2014;" horiz-adv-x="1585" d="M-15 351v57h1614v-57h-1614z" />
<glyph unicode="&#x2018;" horiz-adv-x="528" d="M143 826q0 91 68 166q46 50 133 82v-34q-79 -48 -108 -89q-21 -30 -21 -71q0 -25 9 -36q9 -12 21 -12q7 0 21 5q21 7 34 7q31 0 55 -23t24 -58q0 -39 -24 -61q-33 -29 -77 -29q-53 0 -94 44t-41 109z" />
<glyph unicode="&#x2019;" horiz-adv-x="528" d="M149 984q0 38 24 60q33 30 78 30q52 0 93 -44t41 -109q0 -91 -68 -166q-46 -50 -133 -82v36q80 47 109 88q20 30 20 71q0 24 -9 35q-9 12 -20 12q-8 0 -22 -6q-21 -7 -34 -7q-31 0 -55 23.5t-24 58.5z" />
<glyph unicode="&#x201a;" horiz-adv-x="528" d="M157 63q0 38 29 65t71 27q51 0 91 -44.5t40 -118.5q0 -79 -55.5 -147.5t-175.5 -108.5v34q80 26 123.5 81.5t43.5 117.5q0 15 -7 25q-5 7 -10 7q-9 0 -38 -16q-14 -7 -29 -7q-38 0 -60.5 22.5t-22.5 62.5z" />
<glyph unicode="&#x201c;" horiz-adv-x="704" d="M52 831q0 77 51.5 144t148.5 99v-32q-68 -36 -97.5 -74.5t-29.5 -84.5q0 -27 8 -37q7 -11 17 -11t27 6t31 6q32 0 55.5 -23.5t23.5 -58.5q0 -37 -28.5 -63.5t-71.5 -26.5q-52 0 -93.5 45t-41.5 111zM423 828q0 81 51.5 148t147.5 95v-29q-79 -45 -103.5 -80.5 t-24.5 -83.5q0 -22 8 -33q9 -11 18 -11t26 6.5t34 6.5q31 0 55 -23t24 -56q0 -38 -30 -66t-73 -28q-51 0 -92 44t-41 110z" />
<glyph unicode="&#x201d;" horiz-adv-x="704" d="M52 981q0 37 29.5 65t72.5 28q51 0 92.5 -44t41.5 -112q0 -81 -52.5 -148.5t-146.5 -95.5v33q78 44 102.5 80t24.5 83q0 22 -8 33t-18 11q-8 0 -25 -7q-17 -6 -34 -6q-33 0 -56 23.5t-23 56.5zM423 982q0 38 29 65t70 27q53 0 95 -45.5t42 -111.5q0 -77 -51.5 -144 t-149.5 -99v33q68 35 97.5 74t29.5 85q0 27 -8 38q-7 10 -17 10t-27 -7q-18 -6 -31 -6q-31 0 -55 24t-24 57z" />
<glyph unicode="&#x201e;" horiz-adv-x="704" d="M52 62q0 37 29.5 65t72.5 28q51 0 92.5 -44t41.5 -112q0 -81 -52.5 -148.5t-146.5 -95.5v33q78 44 102.5 80t24.5 83q0 22 -8 33t-18 11q-8 0 -25 -7q-17 -6 -34 -6q-33 0 -56 23.5t-23 56.5zM423 63q0 38 29 65t70 27q53 0 95 -45.5t42 -111.5q0 -77 -51.5 -144 t-149.5 -99v33q68 35 97.5 74t29.5 85q0 27 -8 38q-7 10 -17 10t-27 -7q-18 -6 -31 -6q-31 0 -55 24t-24 57z" />
<glyph unicode="&#x2022;" horiz-adv-x="555" d="M87 524q0 80 56.5 137t137.5 57q80 0 137 -57t57 -137t-57 -137t-137 -57q-81 0 -137.5 57t-56.5 137z" />
<glyph unicode="&#x2026;" horiz-adv-x="1585" d="M178 64q0 37 25 61.5t61 24.5t61 -25t25 -61q0 -35 -25 -60.5t-61 -25.5t-61 25.5t-25 60.5zM707 64q0 37 25 61.5t61 24.5q35 0 60 -25t25 -61q0 -35 -25 -60.5t-60 -25.5q-36 0 -61 25.5t-25 60.5zM1235 64q0 37 25 61.5t61 24.5t61 -25t25 -61q0 -35 -25 -60.5 t-61 -25.5q-35 0 -60.5 25.5t-25.5 60.5z" />
<glyph unicode="&#x202f;" horiz-adv-x="280" />
<glyph unicode="&#x2039;" horiz-adv-x="528" d="M92 359l300 364h44l-189 -364l189 -365h-44z" />
<glyph unicode="&#x203a;" horiz-adv-x="528" d="M89 -6l188 364l-188 365h45l305 -365l-305 -364h-45z" />
<glyph unicode="&#x205f;" horiz-adv-x="351" />
<glyph unicode="&#x20ac;" d="M-18 446l18 60h57v13q0 23 2 51h-77l18 61h65q26 183 125 302q114 138 291 138q133 0 264 -68v-231h-31q-20 248 -233 248q-122 0 -193 -129q-55 -101 -72 -260h457l-17 -61h-445q-2 -32 -2 -64h427l-18 -60h-407q6 -163 65 -273q68 -127 185 -127q104 0 174 54 q41 32 106 121l24 -16q-67 -105 -121 -150q-89 -74 -214 -74q-178 0 -275 148q-80 121 -95 317h-78z" />
<glyph unicode="&#x2122;" horiz-adv-x="1553" d="M23 894l16 156h564l17 -156h-26q-8 56 -41 82.5t-109 26.5h-59v-448q0 -65 15.5 -82.5t66.5 -19.5v-28h-289v28q50 4 63.5 21t13.5 80v449h-58q-74 0 -105 -24.5t-42 -84.5h-27zM673 425v28q44 0 59 7.5t22 24t7 69.5v361q0 59 -6.5 74.5t-22 23.5t-59.5 8v29h222 l211 -443l205 443h216v-29q-43 -1 -57.5 -8.5t-21.5 -24.5t-7 -72v-362q0 -66 15 -82t71 -19v-28h-308v28q46 1 61.5 9.5t23 24.5t7.5 66v381l-237 -509h-25l-239 502v-373q0 -52 7 -68t21 -24.5t44 -8.5h28v-28h-237z" />
<glyph unicode="&#x25fc;" horiz-adv-x="710" d="M0 0v710h710v-710h-710z" />
</font>
</defs>
</svg>
